<?xml version="1.0" encoding="iso-8859-1"?>
<!-- Generator: Adobe Illustrator 19.0.0, SVG Export Plug-In . SVG Version: 6.00 Build 0)  -->
<svg version="1.1" id="Capa_1" xmlns="http://www.w3.org/2000/svg" xmlns:xlink="http://www.w3.org/1999/xlink" x="0px" y="0px"
	 viewBox="0 0 850.39 850.39" style="enable-background:new 0 0 850.39 850.39;" xml:space="preserve">
<g id="XMLID_1_">
	<path id="XMLID_280_" style="fill:#7285B4;" d="M425.195,68.846c-196.813,0-356.331,159.553-356.331,356.366
		c0,196.778,159.519,356.331,356.331,356.331S781.526,621.99,781.526,425.212C781.526,228.4,622.008,68.846,425.195,68.846z
		 M425.195,710.159c-157.394,0-284.947-127.587-284.947-284.947c0-157.394,127.553-284.981,284.947-284.981
		s284.947,127.587,284.947,284.981C710.142,582.572,582.589,710.159,425.195,710.159z"/>
	<g id="XMLID_268_">
		<path id="XMLID_522_" style="fill:#7285B4;" d="M298.298,411.907h-14.451l-4.188-13.096h-20.937l-4.146,13.096h-14.369
			l21.43-58.871h15.724L298.298,411.907z M276.621,388.63l-6.322-19.788c-0.465-1.478-0.794-3.243-0.985-5.296h-0.328
			c-0.137,1.724-0.479,3.435-1.026,5.132l-6.404,19.952H276.621z"/>
		<path id="XMLID_525_" style="fill:#7285B4;" d="M344.319,411.907h-12.932v-6.404h-0.205c-3.202,4.954-7.486,7.431-12.85,7.431
			c-9.743,0-14.615-5.898-14.615-17.694v-25.371h12.932v24.222c0,5.939,2.354,8.909,7.061,8.909c2.326,0,4.187-0.814,5.583-2.443
			c1.396-1.628,2.094-3.839,2.094-6.63v-24.058h12.932V411.907z"/>
		<path id="XMLID_527_" style="fill:#7285B4;" d="M396.375,411.907h-12.973v-5.789h-0.164c-2.956,4.543-7.294,6.815-13.014,6.815
			c-5.255,0-9.483-1.854-12.686-5.563c-3.202-3.709-4.803-8.888-4.803-15.539c0-6.952,1.765-12.521,5.296-16.709
			c3.531-4.188,8.156-6.281,13.876-6.281c5.419,0,9.196,1.943,11.331,5.83h0.164V349.67h12.973V411.907z M383.649,391.462v-3.161
			c0-2.737-0.794-5.009-2.381-6.815s-3.654-2.71-6.199-2.71c-2.874,0-5.118,1.129-6.733,3.387s-2.422,5.358-2.422,9.299
			c0,3.695,0.78,6.541,2.34,8.539c1.56,1.998,3.722,2.997,6.487,2.997c2.627,0,4.769-1.054,6.425-3.161
			C382.821,397.73,383.649,394.938,383.649,391.462z"/>
		<path id="XMLID_530_" style="fill:#7285B4;" d="M413.864,363.217c-2.19,0-3.982-0.65-5.378-1.95
			c-1.396-1.3-2.094-2.894-2.094-4.783c0-1.943,0.698-3.531,2.094-4.762c1.396-1.232,3.189-1.847,5.378-1.847
			c2.217,0,4.016,0.616,5.399,1.847c1.382,1.232,2.073,2.819,2.073,4.762c0,1.971-0.691,3.585-2.073,4.844
			C417.881,362.588,416.081,363.217,413.864,363.217z M420.269,411.907h-12.973v-42.039h12.973V411.907z"/>
		<path id="XMLID_533_" style="fill:#7285B4;" d="M456.601,411.415c-1.916,1.013-4.803,1.519-8.662,1.519
			c-9.141,0-13.712-4.749-13.712-14.246v-19.254h-6.815v-9.566h6.815v-9.073l12.932-3.695v12.768h9.442v9.566h-9.442v16.996
			c0,4.379,1.738,6.569,5.214,6.569c1.368,0,2.778-0.397,4.229-1.191V411.415z"/>
		<path id="XMLID_535_" style="fill:#7285B4;" d="M483.943,412.934c-7.007,0-12.515-1.964-16.524-5.891
			c-4.01-3.927-6.014-9.258-6.014-15.99c0-6.952,2.08-12.391,6.24-16.319c4.16-3.927,9.785-5.891,16.873-5.891
			c6.979,0,12.453,1.964,16.422,5.891s5.953,9.121,5.953,15.58c0,6.979-2.046,12.494-6.138,16.545
			C496.663,410.908,491.059,412.934,483.943,412.934z M484.271,378.777c-3.065,0-5.446,1.054-7.143,3.161
			c-1.697,2.107-2.545,5.091-2.545,8.95c0,8.074,3.257,12.111,9.771,12.111c6.213,0,9.319-4.146,9.319-12.439
			C493.673,382.704,490.539,378.777,484.271,378.777z"/>
		<path id="XMLID_956_" style="fill:#7285B4;" d="M542.732,381.568c-1.56-0.848-3.38-1.273-5.46-1.273
			c-2.819,0-5.022,1.033-6.61,3.1s-2.381,4.879-2.381,8.437v20.075h-12.973v-42.039h12.973v7.8h0.164
			c2.053-5.693,5.748-8.539,11.085-8.539c1.368,0,2.436,0.164,3.202,0.493V381.568z"/>
		<path id="XMLID_958_" style="fill:#7285B4;" d="M568.432,349.957l-12.85,13.26h-9.36l10.674-13.26H568.432z M561.74,411.907
			h-12.973v-42.039h12.973V411.907z"/>
		<path id="XMLID_974_" style="fill:#7285B4;" d="M607.638,411.907h-12.275v-6.035h-0.164c-2.819,4.707-6.993,7.061-12.521,7.061
			c-4.078,0-7.287-1.156-9.627-3.469c-2.34-2.313-3.51-5.399-3.51-9.258c0-8.156,4.831-12.864,14.492-14.122l11.413-1.519
			c0-4.598-2.491-6.897-7.472-6.897c-5.009,0-9.771,1.492-14.287,4.475v-9.771c1.806-0.931,4.276-1.752,7.41-2.463
			c3.134-0.712,5.987-1.067,8.56-1.067c11.988,0,17.982,5.98,17.982,17.941V411.907z M595.445,394.829v-2.833l-7.636,0.985
			c-4.215,0.547-6.322,2.45-6.322,5.706c0,1.478,0.513,2.689,1.54,3.633c1.026,0.944,2.415,1.416,4.167,1.416
			c2.436,0,4.42-0.842,5.953-2.525C594.679,399.53,595.445,397.402,595.445,394.829z"/>
		<path id="XMLID_977_" style="fill:#7285B4;" d="M265.065,480.973h-12.973v-5.789h-0.164c-2.956,4.543-7.294,6.815-13.014,6.815
			c-5.255,0-9.483-1.854-12.686-5.563s-4.803-8.888-4.803-15.539c0-6.952,1.765-12.521,5.296-16.709
			c3.531-4.188,8.156-6.281,13.876-6.281c5.419,0,9.196,1.943,11.331,5.83h0.164v-25.002h12.973V480.973z M252.338,460.529v-3.161
			c0-2.737-0.794-5.009-2.381-6.815s-3.654-2.71-6.199-2.71c-2.874,0-5.118,1.129-6.733,3.387c-1.615,2.258-2.422,5.358-2.422,9.299
			c0,3.695,0.78,6.541,2.34,8.539s3.722,2.997,6.486,2.997c2.627,0,4.769-1.054,6.425-3.161S252.338,464.005,252.338,460.529z"/>
		<path id="XMLID_980_" style="fill:#7285B4;" d="M313.754,463.649h-27.424c0.438,6.103,4.283,9.155,11.536,9.155
			c4.625,0,8.69-1.095,12.193-3.284v9.36c-3.886,2.08-8.936,3.12-15.149,3.12c-6.788,0-12.056-1.882-15.806-5.645
			c-3.75-3.763-5.624-9.011-5.624-15.744c0-6.979,2.025-12.508,6.076-16.586c4.051-4.078,9.032-6.117,14.944-6.117
			c6.131,0,10.872,1.82,14.225,5.46s5.029,8.58,5.029,14.82V463.649z M301.726,455.684c0-6.021-2.436-9.032-7.308-9.032
			c-2.08,0-3.88,0.862-5.399,2.586c-1.519,1.724-2.443,3.873-2.771,6.445H301.726z"/>
		<path id="XMLID_983_" style="fill:#7285B4;" d="M351.237,432.284c-2.19,0-3.982-0.65-5.378-1.95
			c-1.396-1.3-2.094-2.894-2.094-4.783c0-1.943,0.698-3.531,2.094-4.762c1.396-1.232,3.189-1.847,5.378-1.847
			c2.217,0,4.016,0.616,5.399,1.847c1.382,1.232,2.073,2.819,2.073,4.762c0,1.971-0.691,3.585-2.073,4.844
			C355.253,431.654,353.453,432.284,351.237,432.284z M357.641,480.973h-12.973v-42.039h12.973V480.973z"/>
		<path id="XMLID_986_" style="fill:#7285B4;" d="M435.315,480.973h-12.932v-23.975c0-6.103-2.244-9.155-6.733-9.155
			c-2.135,0-3.873,0.917-5.214,2.751s-2.012,4.119-2.012,6.856v23.524h-12.973v-24.222c0-5.939-2.203-8.909-6.61-8.909
			c-2.217,0-3.989,0.876-5.316,2.627c-1.327,1.752-1.991,4.133-1.991,7.143v23.36h-12.973v-42.039h12.973v6.569h0.164
			c1.341-2.244,3.223-4.071,5.645-5.481s5.07-2.114,7.944-2.114c5.939,0,10.003,2.614,12.193,7.841
			c3.202-5.228,7.91-7.841,14.122-7.841c9.141,0,13.712,5.638,13.712,16.914V480.973z"/>
		<path id="XMLID_988_" style="fill:#7285B4;" d="M480.556,480.973h-12.275v-6.035h-0.164c-2.819,4.707-6.993,7.061-12.521,7.061
			c-4.078,0-7.287-1.156-9.627-3.469c-2.34-2.313-3.51-5.399-3.51-9.258c0-8.156,4.831-12.864,14.492-14.122l11.413-1.519
			c0-4.598-2.491-6.897-7.472-6.897c-5.009,0-9.771,1.492-14.287,4.475v-9.771c1.806-0.931,4.276-1.752,7.41-2.463
			c3.134-0.712,5.987-1.067,8.56-1.067c11.988,0,17.982,5.98,17.982,17.941V480.973z M468.363,463.895v-2.833l-7.636,0.985
			c-4.215,0.547-6.322,2.45-6.322,5.706c0,1.478,0.513,2.689,1.54,3.633c1.026,0.944,2.415,1.416,4.167,1.416
			c2.436,0,4.42-0.842,5.953-2.525C467.597,468.596,468.363,466.468,468.363,463.895z"/>
		<path id="XMLID_991_" style="fill:#7285B4;" d="M532.038,476.17c0,7.8-2.258,13.842-6.774,18.125
			c-4.516,4.283-11.057,6.425-19.624,6.425c-5.665,0-10.154-0.807-13.466-2.422v-10.92c4.324,2.518,8.69,3.777,13.096,3.777
			c4.379,0,7.773-1.156,10.181-3.469c2.409-2.313,3.613-5.453,3.613-9.422v-3.325H518.9c-2.956,4.707-7.321,7.061-13.096,7.061
			c-5.364,0-9.62-1.888-12.768-5.665s-4.721-8.84-4.721-15.19c0-7.116,1.752-12.768,5.255-16.955
			c3.503-4.188,8.115-6.281,13.835-6.281c5.118,0,8.95,1.971,11.495,5.912h0.164v-4.885h12.973V476.17z M519.229,460.775v-3.325
			c0-2.655-0.787-4.92-2.361-6.794s-3.62-2.812-6.138-2.812c-2.874,0-5.132,1.122-6.774,3.366c-1.642,2.244-2.463,5.405-2.463,9.483
			c0,3.503,0.78,6.274,2.34,8.313c1.56,2.039,3.695,3.059,6.404,3.059c2.682,0,4.851-1.033,6.507-3.1
			S519.229,464.169,519.229,460.775z"/>
		<path id="XMLID_994_" style="fill:#7285B4;" d="M580.645,463.649h-27.424c0.438,6.103,4.283,9.155,11.536,9.155
			c4.625,0,8.69-1.095,12.193-3.284v9.36c-3.886,2.08-8.936,3.12-15.149,3.12c-6.788,0-12.056-1.882-15.806-5.645
			s-5.624-9.011-5.624-15.744c0-6.979,2.025-12.508,6.076-16.586c4.051-4.078,9.032-6.117,14.944-6.117
			c6.131,0,10.872,1.82,14.225,5.46s5.029,8.58,5.029,14.82V463.649z M568.616,455.684c0-6.021-2.436-9.032-7.308-9.032
			c-2.08,0-3.88,0.862-5.399,2.586c-1.519,1.724-2.443,3.873-2.771,6.445H568.616z"/>
		<path id="XMLID_997_" style="fill:#7285B4;" d="M628.966,480.973h-12.932v-23.36c0-6.514-2.326-9.771-6.979-9.771
			c-2.244,0-4.092,0.862-5.542,2.586c-1.451,1.724-2.176,3.914-2.176,6.569v23.975h-12.973v-42.039h12.973v6.651h0.164
			c3.093-5.118,7.595-7.677,13.507-7.677c9.306,0,13.958,5.775,13.958,17.325V480.973z"/>
	</g>
</g>
<g id="XMLID_2_">
</g>
<g id="XMLID_3_">
</g>
<g id="XMLID_4_">
</g>
<g id="XMLID_5_">
</g>
<g id="XMLID_6_">
</g>
<g id="XMLID_7_">
</g>
</svg>
