<?xml version="1.0" encoding="iso-8859-1"?>
<!-- Generator: Adobe Illustrator 19.0.0, SVG Export Plug-In . SVG Version: 6.00 Build 0)  -->
<svg version="1.1" id="Capa_1" xmlns="http://www.w3.org/2000/svg" xmlns:xlink="http://www.w3.org/1999/xlink" x="0px" y="0px"
	 viewBox="0 0 850.39 850.39" style="enable-background:new 0 0 850.39 850.39;" xml:space="preserve">
<path id="XMLID_274_" style="fill:#7285B4;" d="M425.195,64.593c-199.162,0-360.584,161.458-360.584,360.619
	c0,199.127,161.423,360.584,360.584,360.584s360.584-161.457,360.584-360.584C785.779,226.051,624.357,64.593,425.195,64.593z
	 M425.195,713.56c-159.273,0-288.348-129.11-288.348-288.347c0-159.273,129.075-288.383,288.348-288.383
	s288.348,129.11,288.348,288.383C713.543,584.45,584.468,713.56,425.195,713.56z"/>
<g id="XMLID_169_">
	<g id="XMLID_170_">
		<rect id="XMLID_58_" x="143.691" y="345.183" style="fill:none;" width="563.007" height="160.023"/>
		<path id="XMLID_2_" style="fill:#7285B4;" d="M245.414,406.024c-4.348,2.105-10.026,3.157-17.033,3.157
			c-9.14,0-16.327-2.686-21.562-8.06c-5.234-5.373-7.852-12.532-7.852-21.478c0-9.527,2.942-17.254,8.828-23.182
			c5.885-5.926,13.522-8.89,22.911-8.89c5.816,0,10.719,0.734,14.707,2.202v12.92c-3.988-2.382-8.531-3.573-13.626-3.573
			c-5.595,0-10.11,1.759-13.543,5.276c-3.435,3.518-5.151,8.281-5.151,14.291c0,5.761,1.62,10.352,4.86,13.772
			c3.241,3.421,7.603,5.13,13.086,5.13c5.234,0,10.026-1.273,14.374-3.822V406.024z"/>
		<path id="XMLID_4_" style="fill:#7285B4;" d="M274.785,409.182c-7.09,0-12.665-1.987-16.722-5.961
			c-4.058-3.974-6.086-9.368-6.086-16.182c0-7.034,2.104-12.539,6.314-16.513c4.209-3.974,9.901-5.962,17.075-5.962
			c7.063,0,12.602,1.988,16.618,5.962c4.015,3.974,6.023,9.229,6.023,15.766c0,7.063-2.07,12.644-6.21,16.742
			C287.656,407.132,281.986,409.182,274.785,409.182z M275.117,374.617c-3.102,0-5.512,1.066-7.229,3.199
			c-1.717,2.133-2.576,5.151-2.576,9.057c0,8.17,3.295,12.255,9.888,12.255c6.287,0,9.43-4.196,9.43-12.587
			C284.631,378.592,281.459,374.617,275.117,374.617z"/>
		<path id="XMLID_7_" style="fill:#7285B4;" d="M347.611,408.143h-13.086v-23.638c0-6.591-2.354-9.888-7.063-9.888
			c-2.271,0-4.141,0.873-5.608,2.617c-1.468,1.745-2.202,3.961-2.202,6.647v24.262h-13.128v-42.541h13.128v6.73h0.166
			c3.129-5.179,7.686-7.769,13.668-7.769c9.416,0,14.125,5.844,14.125,17.532V408.143z"/>
		<path id="XMLID_9_" style="fill:#7285B4;" d="M355.213,407.021v-10.635c2.161,1.302,4.313,2.271,6.46,2.908
			c2.146,0.637,4.175,0.955,6.086,0.955c2.327,0,4.161-0.318,5.504-0.955s2.015-1.606,2.015-2.908c0-0.831-0.305-1.523-0.914-2.077
			c-0.609-0.554-1.392-1.039-2.347-1.454s-2.001-0.79-3.137-1.122c-1.136-0.333-2.229-0.707-3.282-1.122
			c-1.69-0.637-3.178-1.322-4.466-2.057c-1.288-0.733-2.368-1.585-3.241-2.555c-0.873-0.969-1.537-2.091-1.994-3.365
			c-0.457-1.273-0.686-2.784-0.686-4.528c0-2.382,0.52-4.431,1.558-6.148c1.039-1.717,2.423-3.123,4.154-4.217
			c1.73-1.094,3.711-1.896,5.941-2.41c2.229-0.512,4.549-0.769,6.958-0.769c1.883,0,3.794,0.146,5.733,0.437
			c1.938,0.291,3.85,0.713,5.733,1.267v10.137c-1.662-0.969-3.442-1.696-5.338-2.181c-1.897-0.484-3.76-0.727-5.588-0.727
			c-0.859,0-1.669,0.077-2.43,0.229c-0.762,0.152-1.434,0.374-2.015,0.665c-0.582,0.291-1.039,0.665-1.371,1.122
			c-0.333,0.457-0.499,0.977-0.499,1.558c0,0.776,0.249,1.44,0.748,1.994c0.499,0.554,1.149,1.032,1.953,1.433
			c0.803,0.402,1.696,0.762,2.68,1.08c0.982,0.319,1.959,0.644,2.929,0.977c1.745,0.609,3.324,1.274,4.736,1.994
			c1.413,0.72,2.624,1.565,3.635,2.534c1.011,0.97,1.786,2.105,2.327,3.406c0.54,1.302,0.81,2.853,0.81,4.653
			c0,2.521-0.547,4.674-1.641,6.46c-1.094,1.786-2.548,3.24-4.362,4.362s-3.905,1.939-6.273,2.451s-4.826,0.769-7.374,0.769
			C363.536,409.182,359.202,408.461,355.213,407.021z"/>
		<path id="XMLID_11_" style="fill:#7285B4;" d="M435.85,408.143h-13.085v-6.481h-0.208c-3.24,5.013-7.575,7.52-13.003,7.52
			c-9.86,0-14.79-5.968-14.79-17.905v-25.674h13.086v24.511c0,6.01,2.382,9.015,7.146,9.015c2.354,0,4.238-0.824,5.65-2.472
			c1.413-1.647,2.119-3.884,2.119-6.709v-24.345h13.085V408.143z"/>
		<path id="XMLID_13_" style="fill:#7285B4;" d="M460.028,408.143H446.9v-62.98h13.128V408.143z"/>
		<path id="XMLID_15_" style="fill:#7285B4;" d="M496.795,407.645c-1.939,1.024-4.861,1.537-8.766,1.537
			c-9.251,0-13.876-4.805-13.876-14.416v-19.484h-6.896v-9.68h6.896v-9.181l13.086-3.739v12.92h9.556v9.68h-9.556v17.199
			c0,4.432,1.759,6.647,5.276,6.647c1.385,0,2.811-0.401,4.279-1.205V407.645z"/>
		<path id="XMLID_18_" style="fill:#7285B4;" d="M524.463,409.182c-7.091,0-12.664-1.987-16.722-5.961
			c-4.058-3.974-6.086-9.368-6.086-16.182c0-7.034,2.104-12.539,6.314-16.513s9.901-5.962,17.074-5.962
			c7.063,0,12.602,1.988,16.618,5.962c4.016,3.974,6.023,9.229,6.023,15.766c0,7.063-2.07,12.644-6.211,16.742
			C537.334,407.132,531.663,409.182,524.463,409.182z M524.795,374.617c-3.102,0-5.512,1.066-7.229,3.199
			c-1.718,2.133-2.575,5.151-2.575,9.057c0,8.17,3.295,12.255,9.887,12.255c6.287,0,9.431-4.196,9.431-12.587
			C534.309,378.592,531.137,374.617,524.795,374.617z"/>
		<path id="XMLID_21_" style="fill:#7285B4;" d="M583.953,377.442c-1.578-0.858-3.421-1.288-5.525-1.288
			c-2.853,0-5.082,1.046-6.688,3.137c-1.606,2.091-2.409,4.937-2.409,8.537v20.315h-13.128v-42.541h13.128v7.894h0.166
			c2.077-5.76,5.816-8.641,11.217-8.641c1.385,0,2.465,0.166,3.24,0.499V377.442z"/>
		<path id="XMLID_23_" style="fill:#7285B4;" d="M609.96,345.454l-13.003,13.418h-9.473l10.802-13.418H609.96z M603.188,408.143
			h-13.128v-42.541h13.128V408.143z"/>
		<path id="XMLID_26_" style="fill:#7285B4;" d="M649.635,408.143h-12.422v-6.107h-0.166c-2.853,4.764-7.077,7.146-12.671,7.146
			c-4.127,0-7.374-1.17-9.742-3.51s-3.552-5.463-3.552-9.368c0-8.253,4.888-13.017,14.665-14.291l11.549-1.537
			c0-4.653-2.521-6.979-7.561-6.979c-5.068,0-9.888,1.51-14.458,4.528v-9.888c1.828-0.941,4.327-1.772,7.499-2.493
			c3.171-0.72,6.059-1.08,8.662-1.08c12.131,0,18.196,6.052,18.196,18.155V408.143z M637.296,390.861v-2.867l-7.727,0.997
			c-4.266,0.555-6.398,2.479-6.398,5.775c0,1.496,0.52,2.721,1.559,3.676c1.038,0.956,2.443,1.434,4.216,1.434
			c2.465,0,4.473-0.852,6.024-2.555C636.521,395.618,637.296,393.464,637.296,390.861z"/>
		<path id="XMLID_29_" style="fill:#7285B4;" d="M249.526,460.502h-27.751c0.443,6.176,4.334,9.264,11.674,9.264
			c4.68,0,8.793-1.107,12.339-3.323v9.472c-3.933,2.105-9.043,3.158-15.33,3.158c-6.869,0-12.201-1.904-15.995-5.713
			c-3.795-3.808-5.691-9.119-5.691-15.932c0-7.063,2.049-12.657,6.148-16.784c4.099-4.126,9.14-6.189,15.122-6.189
			c6.204,0,11.002,1.842,14.395,5.525c3.392,3.684,5.089,8.683,5.089,14.997V460.502z M237.354,452.442
			c0-6.093-2.465-9.14-7.395-9.14c-2.105,0-3.926,0.872-5.463,2.617s-2.472,3.919-2.804,6.522H237.354z"/>
		<path id="XMLID_32_" style="fill:#7285B4;" d="M254.553,476.911v-10.635c2.161,1.302,4.313,2.271,6.46,2.908
			c2.146,0.638,4.175,0.955,6.086,0.955c2.327,0,4.161-0.317,5.504-0.955c1.343-0.637,2.015-1.606,2.015-2.908
			c0-0.831-0.305-1.522-0.914-2.077c-0.609-0.554-1.392-1.039-2.347-1.454s-2.001-0.789-3.137-1.122
			c-1.136-0.332-2.229-0.706-3.282-1.121c-1.69-0.637-3.178-1.322-4.466-2.057c-1.288-0.733-2.368-1.585-3.241-2.555
			s-1.537-2.091-1.994-3.365c-0.457-1.273-0.686-2.783-0.686-4.528c0-2.382,0.52-4.431,1.558-6.148
			c1.039-1.717,2.423-3.122,4.154-4.217c1.73-1.094,3.711-1.896,5.941-2.409c2.229-0.513,4.549-0.769,6.958-0.769
			c1.883,0,3.794,0.146,5.733,0.436c1.938,0.291,3.85,0.714,5.733,1.268v10.137c-1.662-0.97-3.442-1.696-5.338-2.182
			c-1.897-0.483-3.76-0.727-5.588-0.727c-0.859,0-1.669,0.076-2.43,0.229c-0.762,0.152-1.434,0.374-2.015,0.665
			c-0.582,0.29-1.039,0.664-1.371,1.121c-0.333,0.457-0.499,0.977-0.499,1.558c0,0.776,0.249,1.44,0.748,1.994
			c0.499,0.555,1.149,1.032,1.953,1.434c0.803,0.402,1.696,0.762,2.68,1.08c0.982,0.318,1.959,0.645,2.929,0.977
			c1.745,0.609,3.324,1.274,4.736,1.994c1.413,0.721,2.624,1.564,3.635,2.534c1.011,0.97,1.786,2.104,2.327,3.406
			c0.54,1.303,0.81,2.853,0.81,4.653c0,2.521-0.547,4.674-1.641,6.46c-1.094,1.786-2.548,3.24-4.362,4.362
			c-1.814,1.121-3.905,1.938-6.273,2.451c-2.368,0.512-4.826,0.769-7.374,0.769C262.876,479.072,258.542,478.352,254.553,476.911z"
			/>
		<path id="XMLID_34_" style="fill:#7285B4;" d="M320.483,477.535c-1.938,1.023-4.86,1.537-8.766,1.537
			c-9.25,0-13.875-4.806-13.875-14.416v-19.484h-6.896v-9.68h6.896v-9.181l13.086-3.739v12.92h9.555v9.68h-9.555v17.199
			c0,4.432,1.758,6.647,5.276,6.647c1.385,0,2.811-0.401,4.279-1.205V477.535z"/>
		<path id="XMLID_36_" style="fill:#7285B4;" d="M355.629,447.332c-1.579-0.857-3.42-1.287-5.525-1.287
			c-2.853,0-5.083,1.045-6.689,3.136c-1.606,2.092-2.409,4.938-2.409,8.538v20.314h-13.128v-42.541h13.128v7.894h0.166
			c2.077-5.761,5.816-8.642,11.217-8.642c1.385,0,2.465,0.167,3.24,0.499V447.332z"/>
		<path id="XMLID_38_" style="fill:#7285B4;" d="M397.132,478.033H384.71v-6.107h-0.166c-2.853,4.765-7.077,7.146-12.671,7.146
			c-4.127,0-7.374-1.17-9.742-3.511c-2.368-2.34-3.552-5.463-3.552-9.368c0-8.253,4.888-13.017,14.665-14.291l11.549-1.537
			c0-4.653-2.521-6.979-7.561-6.979c-5.068,0-9.887,1.51-14.457,4.528v-9.888c1.828-0.941,4.327-1.771,7.499-2.492
			c3.171-0.72,6.058-1.08,8.662-1.08c12.131,0,18.196,6.052,18.196,18.154V478.033z M384.793,460.751v-2.866l-7.727,0.997
			c-4.265,0.554-6.398,2.479-6.398,5.774c0,1.495,0.52,2.721,1.558,3.677c1.039,0.955,2.444,1.433,4.217,1.433
			c2.465,0,4.472-0.852,6.024-2.555C384.018,465.508,384.793,463.354,384.793,460.751z"/>
		<path id="XMLID_41_" style="fill:#7285B4;" d="M433.233,477.535c-1.939,1.023-4.861,1.537-8.766,1.537
			c-9.25,0-13.875-4.806-13.875-14.416v-19.484h-6.896v-9.68h6.896v-9.181l13.086-3.739v12.92h9.555v9.68h-9.555v17.199
			c0,4.432,1.758,6.647,5.275,6.647c1.385,0,2.811-0.401,4.279-1.205V477.535z"/>
		<path id="XMLID_43_" style="fill:#7285B4;" d="M478.849,460.502h-27.752c0.443,6.176,4.334,9.264,11.674,9.264
			c4.681,0,8.793-1.107,12.339-3.323v9.472c-3.934,2.105-9.043,3.158-15.33,3.158c-6.869,0-12.2-1.904-15.994-5.713
			c-3.795-3.808-5.691-9.119-5.691-15.932c0-7.063,2.049-12.657,6.148-16.784c4.099-4.126,9.14-6.189,15.122-6.189
			c6.203,0,11.002,1.842,14.395,5.525s5.09,8.683,5.09,14.997V460.502z M473.364,415.344l-13.003,13.419h-9.472l10.801-13.419
			H473.364z M466.676,452.442c0-6.093-2.465-9.14-7.395-9.14c-2.105,0-3.926,0.872-5.463,2.617s-2.473,3.919-2.805,6.522H466.676z"
			/>
		<path id="XMLID_47_" style="fill:#7285B4;" d="M528.368,473.173c0,7.893-2.285,14.007-6.854,18.342
			c-4.57,4.334-11.189,6.501-19.858,6.501c-5.732,0-10.275-0.817-13.626-2.451v-11.051c4.376,2.548,8.793,3.822,13.252,3.822
			c4.432,0,7.865-1.17,10.303-3.511c2.438-2.34,3.656-5.519,3.656-9.534v-3.365h-0.166c-2.991,4.765-7.409,7.146-13.253,7.146
			c-5.429,0-9.735-1.911-12.92-5.733c-3.186-3.822-4.777-8.945-4.777-15.371c0-7.201,1.772-12.92,5.317-17.158
			c3.545-4.237,8.212-6.355,14-6.355c5.179,0,9.057,1.994,11.633,5.982h0.166v-4.944h13.128V473.173z M515.406,457.594v-3.365
			c0-2.686-0.796-4.979-2.389-6.875c-1.593-1.897-3.663-2.846-6.211-2.846c-2.908,0-5.192,1.136-6.854,3.406
			c-1.662,2.271-2.492,5.47-2.492,9.597c0,3.545,0.789,6.35,2.367,8.412c1.579,2.063,3.739,3.096,6.481,3.096
			c2.714,0,4.908-1.046,6.584-3.137S515.406,461.028,515.406,457.594z"/>
		<path id="XMLID_50_" style="fill:#7285B4;" d="M545.982,428.763c-2.216,0-4.029-0.658-5.441-1.974
			c-1.413-1.315-2.119-2.929-2.119-4.84c0-1.967,0.706-3.573,2.119-4.819c1.412-1.246,3.226-1.869,5.441-1.869
			c2.244,0,4.064,0.623,5.464,1.869c1.397,1.246,2.098,2.853,2.098,4.819c0,1.994-0.7,3.629-2.098,4.902
			C550.047,428.125,548.227,428.763,545.982,428.763z M552.464,478.033h-13.128v-42.541h13.128V478.033z"/>
		<path id="XMLID_53_" style="fill:#7285B4;" d="M595.753,476.496c-2.964,1.717-7.243,2.576-12.837,2.576
			c-6.537,0-11.827-1.98-15.87-5.941c-4.044-3.96-6.065-9.07-6.065-15.329c0-7.229,2.167-12.927,6.502-17.096
			c4.334-4.168,10.129-6.252,17.386-6.252c5.013,0,8.641,0.664,10.885,1.994v11.134c-2.742-2.05-5.803-3.074-9.182-3.074
			c-3.767,0-6.751,1.101-8.952,3.303c-2.202,2.201-3.303,5.241-3.303,9.118c0,3.768,1.052,6.724,3.157,8.87
			c2.104,2.146,4.999,3.22,8.683,3.22c3.268,0,6.466-1.024,9.597-3.074V476.496z"/>
		<path id="XMLID_55_" style="fill:#7285B4;" d="M639.748,478.033h-12.422v-6.107h-0.166c-2.853,4.765-7.077,7.146-12.671,7.146
			c-4.127,0-7.374-1.17-9.742-3.511c-2.368-2.34-3.552-5.463-3.552-9.368c0-8.253,4.888-13.017,14.665-14.291l11.549-1.537
			c0-4.653-2.521-6.979-7.561-6.979c-5.068,0-9.888,1.51-14.458,4.528v-9.888c1.828-0.941,4.327-1.771,7.499-2.492
			c3.171-0.72,6.059-1.08,8.662-1.08c12.131,0,18.196,6.052,18.196,18.154V478.033z M627.409,460.751v-2.866l-7.727,0.997
			c-4.266,0.554-6.398,2.479-6.398,5.774c0,1.495,0.52,2.721,1.559,3.677c1.038,0.955,2.443,1.433,4.216,1.433
			c2.465,0,4.473-0.852,6.024-2.555C626.634,465.508,627.409,463.354,627.409,460.751z"/>
	</g>
</g>
<g id="XMLID_1_">
</g>
<g id="XMLID_16_">
</g>
<g id="XMLID_59_">
</g>
<g id="XMLID_60_">
</g>
<g id="XMLID_61_">
</g>
<g id="XMLID_62_">
</g>
</svg>
