<?xml version="1.0" encoding="iso-8859-1"?>
<!-- Generator: Adobe Illustrator 19.0.0, SVG Export Plug-In . SVG Version: 6.00 Build 0)  -->
<svg version="1.1" id="Capa_1" xmlns="http://www.w3.org/2000/svg" xmlns:xlink="http://www.w3.org/1999/xlink" x="0px" y="0px"
	 viewBox="0 0 850.39 850.39" style="enable-background:new 0 0 850.39 850.39;" xml:space="preserve">
<path id="XMLID_259_" style="fill:#7285B4;" d="M425.195,70.292c-196.014,0-354.885,158.906-354.885,354.92
	c0,195.98,158.871,354.885,354.885,354.885S780.08,621.192,780.08,425.212C780.08,229.198,621.209,70.292,425.195,70.292z
	 M425.195,709.003c-156.756,0-283.791-127.069-283.791-283.79c0-156.756,127.035-283.825,283.791-283.825
	s283.79,127.069,283.79,283.825C708.985,581.933,581.951,709.003,425.195,709.003z"/>
<g id="XMLID_173_">
	<g id="XMLID_177_">
		<rect id="XMLID_58_" x="148.14" y="346.448" style="fill:none;" width="554.109" height="157.494"/>
		<path id="XMLID_2_" style="fill:#7285B4;" d="M197.104,409.435c-8.396,0-15.238-2.732-20.525-8.198
			c-5.289-5.465-7.932-12.586-7.932-21.363c0-9.268,2.684-16.764,8.055-22.488c5.37-5.724,12.484-8.586,21.343-8.586
			c8.368,0,15.135,2.74,20.301,8.219c5.165,5.479,7.748,12.702,7.748,21.67c0,9.214-2.678,16.641-8.034,22.284
			C212.703,406.614,205.717,409.435,197.104,409.435z M197.677,360.166c-4.634,0-8.314,1.738-11.04,5.213
			c-2.726,3.475-4.089,8.075-4.089,13.799c0,5.806,1.363,10.399,4.089,13.779c2.725,3.38,6.296,5.07,10.712,5.07
			c4.552,0,8.164-1.642,10.835-4.927c2.671-3.284,4.007-7.843,4.007-13.677c0-6.078-1.295-10.808-3.884-14.188
			C205.717,361.856,202.174,360.166,197.677,360.166z"/>
		<path id="XMLID_5_" style="fill:#7285B4;" d="M261.87,378.197c-1.554-0.844-3.367-1.268-5.438-1.268
			c-2.808,0-5.002,1.029-6.583,3.087c-1.582,2.058-2.372,4.859-2.372,8.402v19.994h-12.92v-41.869h12.92v7.769h0.164
			c2.044-5.669,5.724-8.504,11.04-8.504c1.363,0,2.426,0.164,3.189,0.491V378.197z"/>
		<path id="XMLID_7_" style="fill:#7285B4;" d="M308.931,403.629c0,7.769-2.249,13.785-6.747,18.052
			c-4.498,4.266-11.013,6.398-19.544,6.398c-5.643,0-10.113-0.805-13.411-2.412v-10.876c4.307,2.507,8.654,3.762,13.043,3.762
			c4.361,0,7.741-1.152,10.14-3.455c2.398-2.304,3.598-5.432,3.598-9.384v-3.312h-0.164c-2.944,4.688-7.292,7.032-13.043,7.032
			c-5.343,0-9.582-1.88-12.716-5.642c-3.135-3.762-4.702-8.804-4.702-15.128c0-7.087,1.744-12.716,5.233-16.886
			c3.489-4.171,8.082-6.256,13.779-6.256c5.097,0,8.913,1.962,11.448,5.888h0.164v-4.866h12.92V403.629z M296.174,388.296v-3.312
			c0-2.644-0.784-4.899-2.351-6.767c-1.568-1.867-3.605-2.801-6.113-2.801c-2.862,0-5.111,1.118-6.746,3.353
			c-1.636,2.235-2.453,5.383-2.453,9.445c0,3.489,0.777,6.25,2.331,8.28c1.554,2.031,3.68,3.046,6.378,3.046
			c2.671,0,4.831-1.028,6.48-3.087C295.35,394.396,296.174,391.676,296.174,388.296z"/>
		<path id="XMLID_10_" style="fill:#7285B4;" d="M354.562,408.413h-12.225v-6.01h-0.164c-2.808,4.688-6.965,7.032-12.471,7.032
			c-4.062,0-7.257-1.151-9.588-3.455c-2.331-2.303-3.496-5.377-3.496-9.22c0-8.123,4.811-12.811,14.433-14.065l11.367-1.513
			c0-4.579-2.48-6.869-7.441-6.869c-4.988,0-9.731,1.486-14.229,4.457v-9.731c1.799-0.926,4.259-1.744,7.38-2.453
			c3.121-0.708,5.962-1.063,8.525-1.063c11.939,0,17.909,5.956,17.909,17.868V408.413z M342.418,391.403v-2.821l-7.605,0.981
			c-4.198,0.546-6.297,2.44-6.297,5.684c0,1.472,0.511,2.678,1.534,3.618c1.022,0.94,2.405,1.411,4.15,1.411
			c2.426,0,4.402-0.838,5.929-2.515C341.655,396.085,342.418,393.966,342.418,391.403z"/>
		<path id="XMLID_13_" style="fill:#7285B4;" d="M405.221,408.413h-12.879v-23.265c0-6.487-2.317-9.731-6.951-9.731
			c-2.235,0-4.075,0.859-5.52,2.576c-1.445,1.717-2.167,3.898-2.167,6.542v23.878h-12.92v-41.869h12.92v6.624h0.164
			c3.08-5.097,7.564-7.646,13.452-7.646c9.268,0,13.902,5.751,13.902,17.254V408.413z"/>
		<path id="XMLID_15_" style="fill:#7285B4;" d="M421.984,359.92c-2.181,0-3.966-0.647-5.356-1.942
			c-1.39-1.294-2.085-2.882-2.085-4.763c0-1.935,0.695-3.516,2.085-4.743c1.39-1.227,3.175-1.84,5.356-1.84
			c2.208,0,4,0.613,5.376,1.84c1.377,1.227,2.066,2.808,2.066,4.743c0,1.962-0.689,3.571-2.066,4.825
			C425.984,359.293,424.192,359.92,421.984,359.92z M428.362,408.413h-12.92v-41.869h12.92V408.413z"/>
		<path id="XMLID_19_" style="fill:#7285B4;" d="M472.398,408.413h-37.575v-5.356l21.016-26.985h-18.931v-9.527h35.326v6.378
			l-19.912,25.963h20.076V408.413z"/>
		<path id="XMLID_21_" style="fill:#7285B4;" d="M514.185,408.413H501.96v-6.01h-0.164c-2.808,4.688-6.965,7.032-12.471,7.032
			c-4.062,0-7.257-1.151-9.588-3.455c-2.33-2.303-3.495-5.377-3.495-9.22c0-8.123,4.811-12.811,14.433-14.065l11.367-1.513
			c0-4.579-2.481-6.869-7.442-6.869c-4.987,0-9.73,1.486-14.229,4.457v-9.731c1.799-0.926,4.259-1.744,7.38-2.453
			c3.121-0.708,5.963-1.063,8.525-1.063c11.939,0,17.908,5.956,17.908,17.868V408.413z M502.042,391.403v-2.821l-7.605,0.981
			c-4.198,0.546-6.297,2.44-6.297,5.684c0,1.472,0.512,2.678,1.533,3.618c1.022,0.94,2.405,1.411,4.15,1.411
			c2.426,0,4.401-0.838,5.929-2.515C501.278,396.085,502.042,393.966,502.042,391.403z"/>
		<path id="XMLID_24_" style="fill:#7285B4;" d="M556.135,406.9c-2.917,1.689-7.128,2.535-12.634,2.535
			c-6.434,0-11.64-1.948-15.619-5.847c-3.979-3.897-5.969-8.927-5.969-15.087c0-7.114,2.132-12.722,6.398-16.825
			c4.266-4.102,9.97-6.153,17.111-6.153c4.934,0,8.505,0.654,10.712,1.962v10.958c-2.698-2.017-5.71-3.026-9.035-3.026
			c-3.708,0-6.645,1.083-8.812,3.25s-3.251,5.159-3.251,8.975c0,3.707,1.036,6.617,3.107,8.729c2.071,2.113,4.92,3.169,8.546,3.169
			c3.216,0,6.364-1.008,9.444-3.025V406.9z"/>
		<path id="XMLID_26_" style="fill:#7285B4;" d="M571.141,359.92c-2.181,0-3.966-0.647-5.355-1.942
			c-1.391-1.294-2.086-2.882-2.086-4.763c0-1.935,0.695-3.516,2.086-4.743c1.39-1.227,3.175-1.84,5.355-1.84
			c2.208,0,4,0.613,5.377,1.84c1.376,1.227,2.065,2.808,2.065,4.743c0,1.962-0.689,3.571-2.065,4.825
			C575.141,359.293,573.349,359.92,571.141,359.92z M577.52,408.413H564.6v-41.869h12.92V408.413z"/>
		<path id="XMLID_29_" style="fill:#7285B4;" d="M608.348,409.435c-6.978,0-12.464-1.956-16.457-5.867
			c-3.993-3.911-5.989-9.22-5.989-15.925c0-6.923,2.07-12.341,6.215-16.253c4.143-3.911,9.744-5.867,16.805-5.867
			c6.95,0,12.401,1.956,16.354,5.867c3.952,3.912,5.929,9.084,5.929,15.517c0,6.951-2.038,12.444-6.112,16.478
			C621.016,407.418,615.435,409.435,608.348,409.435z M608.675,375.417c-3.053,0-5.424,1.05-7.114,3.148
			c-1.69,2.099-2.535,5.07-2.535,8.914c0,8.041,3.244,12.062,9.731,12.062c6.188,0,9.281-4.129,9.281-12.389
			C618.038,379.328,614.917,375.417,608.675,375.417z M622.536,346.714l-12.798,13.207h-9.322l10.631-13.207H622.536z"/>
		<path id="XMLID_33_" style="fill:#7285B4;" d="M679.982,408.413h-12.879v-23.265c0-6.487-2.317-9.731-6.951-9.731
			c-2.235,0-4.075,0.859-5.52,2.576c-1.445,1.717-2.167,3.898-2.167,6.542v23.878h-12.92v-41.869h12.92v6.624h0.163
			c3.08-5.097,7.564-7.646,13.452-7.646c9.268,0,13.901,5.751,13.901,17.254V408.413z"/>
		<path id="XMLID_35_" style="fill:#7285B4;" d="M257.843,477.198h-12.92v-5.765h-0.164c-2.944,4.524-7.265,6.787-12.961,6.787
			c-5.233,0-9.445-1.847-12.634-5.54c-3.189-3.693-4.784-8.853-4.784-15.477c0-6.923,1.758-12.471,5.274-16.641
			c3.517-4.171,8.123-6.256,13.82-6.256c5.397,0,9.159,1.936,11.285,5.806h0.164v-24.9h12.92V477.198z M245.167,456.836v-3.147
			c0-2.726-0.791-4.988-2.372-6.788c-1.581-1.799-3.639-2.698-6.174-2.698c-2.862,0-5.098,1.124-6.706,3.373
			c-1.608,2.249-2.412,5.336-2.412,9.261c0,3.681,0.777,6.516,2.331,8.505c1.554,1.99,3.707,2.985,6.46,2.985
			c2.617,0,4.75-1.05,6.399-3.148C244.343,463.079,245.167,460.299,245.167,456.836z"/>
		<path id="XMLID_38_" style="fill:#7285B4;" d="M306.335,459.943h-27.313c0.436,6.079,4.266,9.118,11.489,9.118
			c4.606,0,8.654-1.09,12.144-3.271v9.322c-3.871,2.071-8.9,3.107-15.087,3.107c-6.761,0-12.007-1.874-15.742-5.622
			c-3.735-3.748-5.602-8.975-5.602-15.681c0-6.95,2.017-12.457,6.051-16.519c4.034-4.062,8.995-6.092,14.883-6.092
			c6.106,0,10.828,1.813,14.167,5.438c3.339,3.626,5.009,8.546,5.009,14.761V459.943z M294.355,452.012
			c0-5.996-2.426-8.995-7.278-8.995c-2.072,0-3.864,0.858-5.376,2.576c-1.513,1.717-2.433,3.857-2.76,6.419H294.355z"/>
		<path id="XMLID_41_" style="fill:#7285B4;" d="M374.739,459.943h-27.313c0.436,6.079,4.266,9.118,11.489,9.118
			c4.606,0,8.654-1.09,12.144-3.271v9.322c-3.871,2.071-8.9,3.107-15.087,3.107c-6.761,0-12.007-1.874-15.742-5.622
			c-3.735-3.748-5.602-8.975-5.602-15.681c0-6.95,2.017-12.457,6.051-16.519c4.034-4.062,8.995-6.092,14.883-6.092
			c6.106,0,10.828,1.813,14.167,5.438c3.339,3.626,5.009,8.546,5.009,14.761V459.943z M362.759,452.012
			c0-5.996-2.426-8.995-7.278-8.995c-2.072,0-3.864,0.858-5.376,2.576c-1.513,1.717-2.433,3.857-2.76,6.419H362.759z"/>
		<path id="XMLID_44_" style="fill:#7285B4;" d="M422.292,435.329l-15.578,41.869h-14.72l-14.842-41.869h13.82l7.278,25.801
			c0.818,2.917,1.294,5.396,1.431,7.441h0.164c0.19-1.936,0.695-4.334,1.513-7.196l7.441-26.046H422.292z"/>
		<path id="XMLID_46_" style="fill:#7285B4;" d="M465.428,459.943h-27.313c0.437,6.079,4.266,9.118,11.489,9.118
			c4.606,0,8.654-1.09,12.144-3.271v9.322c-3.87,2.071-8.899,3.107-15.087,3.107c-6.761,0-12.008-1.874-15.741-5.622
			c-3.735-3.748-5.602-8.975-5.602-15.681c0-6.95,2.017-12.457,6.051-16.519s8.995-6.092,14.883-6.092
			c6.105,0,10.828,1.813,14.168,5.438c3.338,3.626,5.009,8.546,5.009,14.761V459.943z M453.447,452.012
			c0-5.996-2.427-8.995-7.278-8.995c-2.071,0-3.863,0.858-5.376,2.576c-1.513,1.717-2.433,3.857-2.76,6.419H453.447z"/>
		<path id="XMLID_49_" style="fill:#7285B4;" d="M513.551,477.198h-12.879v-23.265c0-6.487-2.317-9.731-6.951-9.731
			c-2.235,0-4.075,0.858-5.52,2.576c-1.445,1.717-2.167,3.898-2.167,6.542v23.878h-12.92v-41.869h12.92v6.624h0.163
			c3.08-5.097,7.564-7.646,13.452-7.646c9.268,0,13.901,5.751,13.901,17.254V477.198z"/>
		<path id="XMLID_51_" style="fill:#7285B4;" d="M549.082,476.708c-1.908,1.008-4.783,1.513-8.627,1.513
			c-9.104,0-13.656-4.729-13.656-14.188v-19.176h-6.787v-9.527h6.787v-9.036l12.879-3.679v12.715h9.404v9.527h-9.404v16.928
			c0,4.361,1.731,6.542,5.193,6.542c1.362,0,2.766-0.396,4.211-1.187V476.708z"/>
		<path id="XMLID_53_" style="fill:#7285B4;" d="M576.313,478.221c-6.978,0-12.464-1.956-16.457-5.867s-5.989-9.221-5.989-15.926
			c0-6.924,2.07-12.342,6.215-16.253c4.143-3.911,9.744-5.867,16.805-5.867c6.95,0,12.401,1.956,16.354,5.867
			c3.952,3.911,5.929,9.084,5.929,15.517c0,6.951-2.038,12.444-6.112,16.478C588.98,476.203,583.399,478.221,576.313,478.221z
			 M576.64,444.202c-3.053,0-5.424,1.05-7.114,3.148c-1.69,2.1-2.535,5.07-2.535,8.913c0,8.042,3.244,12.063,9.731,12.063
			c6.188,0,9.281-4.13,9.281-12.39C586.003,448.114,582.882,444.202,576.64,444.202z"/>
		<path id="XMLID_56_" style="fill:#7285B4;" d="M604.811,476.095v-10.468c2.126,1.282,4.245,2.235,6.358,2.862
			c2.112,0.627,4.109,0.94,5.99,0.94c2.289,0,4.095-0.313,5.417-0.94s1.983-1.58,1.983-2.862c0-0.817-0.301-1.499-0.899-2.044
			c-0.601-0.545-1.37-1.022-2.311-1.432c-0.94-0.408-1.97-0.776-3.087-1.104c-1.118-0.327-2.194-0.695-3.23-1.104
			c-1.662-0.626-3.127-1.301-4.395-2.023c-1.268-0.722-2.331-1.561-3.189-2.515s-1.513-2.058-1.963-3.312
			c-0.449-1.254-0.675-2.739-0.675-4.457c0-2.344,0.512-4.361,1.533-6.052c1.022-1.689,2.386-3.072,4.089-4.149
			s3.652-1.867,5.847-2.372c2.194-0.504,4.478-0.756,6.849-0.756c1.854,0,3.734,0.143,5.643,0.429s3.789,0.702,5.643,1.247v9.977
			c-1.636-0.954-3.387-1.669-5.254-2.146c-1.867-0.477-3.7-0.716-5.499-0.716c-0.846,0-1.643,0.076-2.393,0.226
			s-1.41,0.367-1.982,0.654c-0.572,0.286-1.022,0.653-1.35,1.104s-0.49,0.961-0.49,1.533c0,0.764,0.245,1.418,0.735,1.963
			c0.491,0.546,1.131,1.016,1.922,1.41c0.79,0.396,1.67,0.751,2.638,1.063c0.967,0.313,1.928,0.634,2.882,0.961
			c1.718,0.6,3.271,1.254,4.661,1.963c1.391,0.709,2.583,1.54,3.578,2.494c0.994,0.954,1.758,2.071,2.29,3.353
			c0.531,1.281,0.797,2.808,0.797,4.579c0,2.48-0.539,4.6-1.615,6.358c-1.077,1.758-2.508,3.188-4.293,4.293
			c-1.785,1.104-3.844,1.908-6.174,2.412c-2.331,0.504-4.75,0.757-7.258,0.757C613.002,478.221,608.736,477.512,604.811,476.095z"/>
	</g>
</g>
<g id="XMLID_1_">
</g>
<g id="XMLID_16_">
</g>
<g id="XMLID_59_">
</g>
<g id="XMLID_60_">
</g>
<g id="XMLID_61_">
</g>
<g id="XMLID_62_">
</g>
</svg>
