<?xml version="1.0" encoding="iso-8859-1"?>
<!-- Generator: Adobe Illustrator 19.0.0, SVG Export Plug-In . SVG Version: 6.00 Build 0)  -->
<svg version="1.1" id="Capa_1" xmlns="http://www.w3.org/2000/svg" xmlns:xlink="http://www.w3.org/1999/xlink" x="0px" y="0px"
	 viewBox="0 0 850.39 850.39" style="enable-background:new 0 0 850.39 850.39;" xml:space="preserve">
<path id="XMLID_390_" style="fill:#7285B4;" d="M425.195,60.093c-201.647,0-365.084,163.473-365.084,365.12
	c0,201.612,163.437,365.084,365.084,365.084s365.084-163.472,365.084-365.084C790.279,223.566,626.842,60.093,425.195,60.093z
	 M425.195,717.159c-161.26,0-291.946-130.721-291.946-291.946c0-161.261,130.686-291.982,291.946-291.982
	s291.946,130.721,291.946,291.982C717.141,586.438,586.455,717.159,425.195,717.159z"/>
<g id="XMLID_242_">
	<g id="XMLID_291_">
		<rect id="XMLID_39_" x="140.178" y="344.186" style="fill:none;" width="570.033" height="162.018"/>
		<path id="XMLID_2_" style="fill:#7285B4;" d="M365.045,347.614l-20.779,60.317h-15.395l-20.526-60.317h14.638l12.577,41.978
			c0.673,2.271,1.079,4.277,1.22,6.015h0.252c0.196-1.878,0.631-3.939,1.304-6.183l12.492-41.81H365.045z"/>
		<path id="XMLID_4_" style="fill:#7285B4;" d="M391.124,344.46l-13.166,13.586h-9.59l10.936-13.586H391.124z M384.268,407.932
			h-13.292V364.86h13.292V407.932z"/>
		<path id="XMLID_7_" style="fill:#7285B4;" d="M437.603,407.932h-13.292v-5.931h-0.168c-3.028,4.655-7.473,6.982-13.334,6.982
			c-5.384,0-9.716-1.899-12.997-5.699s-4.921-9.106-4.921-15.921c0-7.123,1.809-12.829,5.426-17.12
			c3.617-4.29,8.356-6.435,14.217-6.435c5.552,0,9.422,1.991,11.609,5.973h0.168v-25.616h13.292V407.932z M424.563,386.985v-3.239
			c0-2.804-0.813-5.132-2.439-6.982c-1.626-1.851-3.744-2.776-6.352-2.776c-2.944,0-5.244,1.157-6.898,3.47
			c-1.655,2.313-2.482,5.489-2.482,9.527c0,3.785,0.799,6.702,2.398,8.749c1.598,2.048,3.813,3.07,6.646,3.07
			c2.692,0,4.886-1.079,6.583-3.238C423.715,393.406,424.563,390.546,424.563,386.985z"/>
		<path id="XMLID_10_" style="fill:#7285B4;" d="M487.489,390.181h-28.099c0.448,6.253,4.388,9.38,11.819,9.38
			c4.738,0,8.902-1.121,12.492-3.365v9.59c-3.982,2.132-9.154,3.197-15.52,3.197c-6.956,0-12.354-1.928-16.195-5.784
			c-3.842-3.854-5.763-9.232-5.763-16.13c0-7.151,2.075-12.814,6.226-16.993c4.149-4.178,9.254-6.267,15.311-6.267
			c6.281,0,11.139,1.865,14.574,5.594s5.154,8.791,5.154,15.184V390.181z M475.165,382.021c0-6.169-2.498-9.254-7.488-9.254
			c-2.131,0-3.975,0.883-5.531,2.65s-2.503,3.968-2.839,6.604H475.165z"/>
		<path id="XMLID_13_" style="fill:#7285B4;" d="M515.923,408.983c-7.18,0-12.823-2.012-16.931-6.036
			c-4.108-4.023-6.162-9.485-6.162-16.383c0-7.122,2.131-12.695,6.394-16.72c4.262-4.023,10.024-6.036,17.288-6.036
			c7.15,0,12.758,2.012,16.824,6.036c4.065,4.024,6.1,9.345,6.1,15.963c0,7.15-2.097,12.801-6.289,16.951
			C528.954,406.908,523.213,408.983,515.923,408.983z M516.259,373.987c-3.141,0-5.58,1.08-7.318,3.239
			c-1.739,2.16-2.608,5.216-2.608,9.17c0,8.272,3.337,12.408,10.011,12.408c6.365,0,9.549-4.248,9.549-12.745
			C525.892,378.012,522.68,373.987,516.259,373.987z"/>
		<path id="XMLID_17_" style="fill:#7285B4;" d="M290.175,478.693h-13.418v-36.09c0-3.896,0.168-8.202,0.505-12.913h-0.336
			c-0.701,3.702-1.333,6.366-1.893,7.992l-14.133,41.011h-11.104l-14.385-40.59c-0.393-1.094-1.024-3.897-1.893-8.413h-0.379
			c0.364,5.945,0.547,11.161,0.547,15.647v33.355h-12.24v-60.317h19.895l12.324,35.753c0.981,2.86,1.696,5.735,2.146,8.623h0.252
			c0.757-3.337,1.556-6.239,2.397-8.707l12.324-35.669h19.391V478.693z"/>
		<path id="XMLID_19_" style="fill:#7285B4;" d="M338.42,478.693h-12.577v-6.184h-0.168c-2.889,4.824-7.165,7.235-12.829,7.235
			c-4.179,0-7.466-1.185-9.864-3.555c-2.397-2.369-3.596-5.531-3.596-9.484c0-8.356,4.949-13.18,14.848-14.47l11.693-1.557
			c0-4.711-2.552-7.066-7.655-7.066c-5.132,0-10.011,1.529-14.638,4.585v-10.011c1.851-0.953,4.381-1.794,7.592-2.523
			c3.21-0.729,6.134-1.094,8.77-1.094c12.282,0,18.423,6.127,18.423,18.381V478.693z M325.928,461.195v-2.902l-7.824,1.01
			c-4.318,0.562-6.478,2.51-6.478,5.847c0,1.514,0.526,2.755,1.577,3.723c1.052,0.967,2.475,1.451,4.27,1.451
			c2.496,0,4.528-0.862,6.099-2.587C325.142,466.012,325.928,463.832,325.928,461.195z"/>
		<path id="XMLID_22_" style="fill:#7285B4;" d="M377.033,447.609c-1.599-0.869-3.463-1.304-5.594-1.304
			c-2.889,0-5.146,1.059-6.772,3.176c-1.627,2.117-2.44,4.998-2.44,8.644v20.568h-13.292v-43.071h13.292v7.991h0.168
			c2.103-5.832,5.889-8.749,11.357-8.749c1.402,0,2.495,0.169,3.281,0.505V447.609z"/>
		<path id="XMLID_24_" style="fill:#7285B4;" d="M426.372,478.693h-15.941l-13.754-21.367h-0.168v21.367h-13.292v-63.767h13.292
			v40.59h0.168l12.829-19.895h15.773l-15.437,20.231L426.372,478.693z"/>
		<path id="XMLID_26_" style="fill:#7285B4;" d="M470.075,460.943h-28.099c0.448,6.253,4.389,9.38,11.82,9.38
			c4.738,0,8.902-1.121,12.492-3.365v9.59c-3.982,2.132-9.156,3.197-15.521,3.197c-6.954,0-12.353-1.928-16.193-5.784
			c-3.843-3.854-5.763-9.232-5.763-16.131c0-7.15,2.075-12.814,6.226-16.993c4.149-4.178,9.253-6.267,15.311-6.267
			c6.28,0,11.139,1.865,14.574,5.594c3.435,3.73,5.153,8.791,5.153,15.185V460.943z M457.75,452.783
			c0-6.169-2.496-9.254-7.487-9.254c-2.131,0-3.975,0.884-5.53,2.65c-1.557,1.767-2.503,3.968-2.84,6.604H457.75z"/>
		<path id="XMLID_29_" style="fill:#7285B4;" d="M504.019,478.188c-1.963,1.037-4.921,1.557-8.875,1.557
			c-9.366,0-14.049-4.865-14.049-14.596v-19.728h-6.982v-9.8h6.982v-9.296l13.249-3.786v13.082h9.675v9.8h-9.675v17.414
			c0,4.486,1.781,6.729,5.343,6.729c1.401,0,2.846-0.405,4.332-1.22V478.188z"/>
		<path id="XMLID_31_" style="fill:#7285B4;" d="M518.235,428.808c-2.244,0-4.08-0.666-5.51-1.998
			c-1.431-1.331-2.146-2.966-2.146-4.9c0-1.99,0.715-3.617,2.146-4.879c1.43-1.262,3.266-1.893,5.51-1.893
			c2.271,0,4.115,0.631,5.531,1.893s2.124,2.889,2.124,4.879c0,2.02-0.708,3.674-2.124,4.964S520.507,428.808,518.235,428.808z
			 M524.797,478.693h-13.291v-43.071h13.291V478.693z"/>
		<path id="XMLID_34_" style="fill:#7285B4;" d="M577.585,478.693h-13.249V454.76c0-6.673-2.384-10.011-7.15-10.011
			c-2.3,0-4.192,0.884-5.679,2.65s-2.229,4.01-2.229,6.729v24.564h-13.291v-43.071h13.291v6.813h0.168
			c3.169-5.243,7.782-7.865,13.839-7.865c9.534,0,14.301,5.917,14.301,17.75V478.693z"/>
		<path id="XMLID_36_" style="fill:#7285B4;" d="M630.332,473.772c0,7.991-2.313,14.182-6.94,18.57
			c-4.627,4.388-11.329,6.583-20.106,6.583c-5.804,0-10.403-0.828-13.796-2.482v-11.188c4.431,2.58,8.902,3.87,13.418,3.87
			c4.486,0,7.963-1.186,10.432-3.555c2.467-2.37,3.701-5.588,3.701-9.653v-3.407h-0.168c-3.029,4.824-7.502,7.235-13.418,7.235
			c-5.497,0-9.857-1.936-13.082-5.805c-3.225-3.87-4.837-9.058-4.837-15.563c0-7.29,1.794-13.081,5.384-17.371
			c3.59-4.291,8.314-6.436,14.176-6.436c5.243,0,9.169,2.019,11.777,6.057h0.168v-5.005h13.292V473.772z M617.208,457.999v-3.407
			c0-2.72-0.807-5.04-2.418-6.961c-1.613-1.921-3.709-2.882-6.289-2.882c-2.944,0-5.258,1.15-6.94,3.449
			c-1.682,2.3-2.523,5.538-2.523,9.717c0,3.589,0.8,6.429,2.397,8.518c1.599,2.089,3.786,3.133,6.562,3.133
			c2.748,0,4.971-1.058,6.667-3.175S617.208,461.477,617.208,457.999z"/>
	</g>
</g>
<g id="XMLID_1_">
</g>
<g id="XMLID_16_">
</g>
<g id="XMLID_40_">
</g>
<g id="XMLID_41_">
</g>
<g id="XMLID_42_">
</g>
<g id="XMLID_43_">
</g>
</svg>
