<?xml version="1.0" encoding="iso-8859-1"?>
<!-- Generator: Adobe Illustrator 19.0.0, SVG Export Plug-In . SVG Version: 6.00 Build 0)  -->
<svg version="1.1" id="Capa_1" xmlns="http://www.w3.org/2000/svg" xmlns:xlink="http://www.w3.org/1999/xlink" x="0px" y="0px"
	 viewBox="0 0 850.39 850.39" style="enable-background:new 0 0 850.39 850.39;" xml:space="preserve">
<path id="XMLID_387_" style="fill:#7285B4;" d="M425.195,80.129c-190.581,0-345.049,154.502-345.049,345.083
	c0,190.548,154.468,345.049,345.049,345.049s345.049-154.501,345.049-345.049C770.244,234.631,615.776,80.129,425.195,80.129z
	 M425.195,701.136c-152.411,0-275.925-123.547-275.925-275.925c0-152.411,123.514-275.958,275.925-275.958
	S701.12,272.801,701.12,425.212C701.12,577.589,577.606,701.136,425.195,701.136z"/>
<g id="XMLID_293_">
	<g id="XMLID_294_">
		<rect id="XMLID_37_" x="155.819" y="348.631" style="fill:none;" width="538.751" height="153.127"/>
		<path id="XMLID_2_" style="fill:#7285B4;" d="M365.802,408.879h-14.749l-8.865-14.669c-0.663-1.113-1.299-2.107-1.908-2.981
			c-0.61-0.875-1.226-1.623-1.849-2.246c-0.623-0.622-1.272-1.099-1.948-1.431c-0.676-0.331-1.411-0.497-2.206-0.497h-3.458v21.825
			h-12.841v-57.007h20.354c13.834,0,20.752,5.168,20.752,15.504c0,1.987-0.305,3.823-0.915,5.506c-0.61,1.683-1.471,3.2-2.584,4.552
			s-2.458,2.518-4.035,3.498c-1.577,0.981-3.333,1.75-5.267,2.306v0.159c0.848,0.265,1.669,0.696,2.464,1.292
			c0.795,0.597,1.563,1.292,2.306,2.087c0.742,0.795,1.451,1.649,2.127,2.564s1.292,1.809,1.849,2.684L365.802,408.879z
			 M330.819,361.492v15.862h5.565c2.756,0,4.969-0.795,6.639-2.385c1.696-1.616,2.544-3.618,2.544-6.003
			c0-4.982-2.981-7.474-8.945-7.474H330.819z"/>
		<path id="XMLID_5_" style="fill:#7285B4;" d="M406.471,392.103h-26.557c0.424,5.911,4.147,8.865,11.171,8.865
			c4.479,0,8.414-1.06,11.808-3.18v9.064c-3.764,2.015-8.654,3.021-14.67,3.021c-6.573,0-11.674-1.822-15.305-5.467
			c-3.631-3.644-5.446-8.726-5.446-15.245c0-6.758,1.961-12.111,5.884-16.061c3.922-3.949,8.746-5.924,14.47-5.924
			c5.937,0,10.528,1.763,13.774,5.288c3.246,3.525,4.871,8.309,4.871,14.351V392.103z M394.822,384.391
			c0-5.831-2.359-8.746-7.076-8.746c-2.014,0-3.757,0.835-5.228,2.504c-1.471,1.67-2.365,3.75-2.684,6.242H394.822z"/>
		<path id="XMLID_8_" style="fill:#7285B4;" d="M453.777,408.879h-12.563v-5.605h-0.159c-2.862,4.399-7.063,6.6-12.602,6.6
			c-5.088,0-9.183-1.796-12.284-5.387c-3.101-3.591-4.651-8.607-4.651-15.047c0-6.732,1.709-12.125,5.128-16.18
			c3.419-4.055,7.897-6.083,13.437-6.083c5.247,0,8.904,1.882,10.972,5.646h0.159v-24.21h12.563V408.879z M441.453,389.082v-3.061
			c0-2.65-0.769-4.85-2.306-6.599c-1.537-1.75-3.538-2.624-6.003-2.624c-2.782,0-4.956,1.093-6.52,3.28
			c-1.564,2.187-2.345,5.188-2.345,9.004c0,3.578,0.756,6.334,2.266,8.269c1.511,1.935,3.604,2.902,6.28,2.902
			c2.545,0,4.618-1.02,6.222-3.061C440.651,395.151,441.453,392.447,441.453,389.082z"/>
		<path id="XMLID_11_" style="fill:#7285B4;" d="M500.926,392.103H474.37c0.423,5.911,4.147,8.865,11.171,8.865
			c4.479,0,8.414-1.06,11.807-3.18v9.064c-3.764,2.015-8.653,3.021-14.669,3.021c-6.573,0-11.675-1.822-15.306-5.467
			c-3.631-3.644-5.446-8.726-5.446-15.245c0-6.758,1.961-12.111,5.884-16.061c3.922-3.949,8.746-5.924,14.471-5.924
			c5.936,0,10.527,1.763,13.774,5.288c3.246,3.525,4.87,8.309,4.87,14.351V392.103z M489.277,384.391
			c0-5.831-2.359-8.746-7.076-8.746c-2.015,0-3.757,0.835-5.228,2.504c-1.471,1.67-2.365,3.75-2.684,6.242H489.277z"/>
		<path id="XMLID_14_" style="fill:#7285B4;" d="M505.736,407.806v-10.177c2.067,1.246,4.127,2.173,6.182,2.783
			c2.054,0.61,3.995,0.914,5.824,0.914c2.226,0,3.981-0.304,5.267-0.914c1.285-0.609,1.929-1.537,1.929-2.783
			c0-0.795-0.292-1.457-0.875-1.988c-0.583-0.53-1.332-0.994-2.246-1.391s-1.915-0.755-3.001-1.073
			c-1.087-0.318-2.134-0.676-3.141-1.074c-1.617-0.609-3.041-1.265-4.273-1.968c-1.232-0.702-2.267-1.517-3.102-2.445
			c-0.834-0.927-1.471-2-1.908-3.22c-0.437-1.219-0.655-2.664-0.655-4.333c0-2.279,0.497-4.24,1.49-5.883
			c0.994-1.643,2.319-2.988,3.976-4.035c1.656-1.047,3.551-1.815,5.685-2.306c2.134-0.49,4.354-0.736,6.659-0.736
			c1.802,0,3.631,0.139,5.486,0.417c1.854,0.278,3.684,0.683,5.485,1.213v9.7c-1.59-0.927-3.293-1.623-5.108-2.087
			c-1.815-0.463-3.598-0.696-5.347-0.696c-0.821,0-1.597,0.073-2.325,0.219c-0.729,0.146-1.372,0.357-1.929,0.636
			s-0.993,0.636-1.312,1.074c-0.318,0.437-0.477,0.934-0.477,1.491c0,0.742,0.238,1.378,0.715,1.908
			c0.478,0.53,1.1,0.987,1.869,1.372c0.768,0.384,1.623,0.729,2.563,1.033c0.94,0.305,1.875,0.616,2.803,0.935
			c1.67,0.583,3.181,1.219,4.532,1.908c1.352,0.689,2.511,1.498,3.479,2.425c0.967,0.928,1.709,2.015,2.226,3.26
			c0.518,1.246,0.775,2.73,0.775,4.453c0,2.412-0.523,4.472-1.57,6.181c-1.047,1.71-2.438,3.102-4.174,4.175
			c-1.736,1.073-3.737,1.855-6.003,2.346c-2.266,0.489-4.618,0.735-7.057,0.735C513.7,409.873,509.553,409.184,505.736,407.806z"/>
		<path id="XMLID_17_" style="fill:#7285B4;" d="M280.51,474.685v-10.177c2.067,1.246,4.128,2.173,6.182,2.782
			c2.053,0.61,3.995,0.914,5.824,0.914c2.226,0,3.981-0.304,5.268-0.914c1.285-0.609,1.928-1.536,1.928-2.782
			c0-0.796-0.292-1.458-0.875-1.988c-0.583-0.529-1.332-0.993-2.246-1.392c-0.914-0.397-1.915-0.755-3.001-1.073
			c-1.087-0.317-2.133-0.676-3.141-1.073c-1.617-0.609-3.041-1.265-4.273-1.968c-1.232-0.702-2.266-1.517-3.101-2.444
			s-1.471-2.001-1.908-3.221c-0.438-1.219-0.656-2.663-0.656-4.333c0-2.279,0.497-4.24,1.491-5.884
			c0.994-1.643,2.318-2.987,3.975-4.035c1.656-1.046,3.551-1.814,5.685-2.306c2.133-0.49,4.353-0.735,6.659-0.735
			c1.802,0,3.63,0.14,5.486,0.418c1.855,0.278,3.684,0.683,5.486,1.212v9.7c-1.59-0.928-3.293-1.623-5.108-2.087
			c-1.816-0.464-3.598-0.696-5.347-0.696c-0.822,0-1.597,0.074-2.326,0.219c-0.729,0.146-1.371,0.358-1.928,0.637
			s-0.994,0.636-1.312,1.073s-0.477,0.934-0.477,1.49c0,0.742,0.239,1.379,0.716,1.908c0.477,0.531,1.099,0.988,1.868,1.372
			c0.769,0.385,1.623,0.729,2.564,1.033c0.94,0.306,1.875,0.616,2.803,0.935c1.67,0.583,3.181,1.219,4.532,1.908
			s2.511,1.497,3.479,2.425c0.967,0.928,1.709,2.015,2.226,3.26c0.517,1.246,0.775,2.73,0.775,4.452c0,2.412-0.524,4.473-1.57,6.182
			c-1.047,1.71-2.439,3.102-4.174,4.175c-1.736,1.073-3.737,1.855-6.003,2.346c-2.266,0.489-4.618,0.735-7.056,0.735
			C288.474,476.752,284.327,476.063,280.51,474.685z"/>
		<path id="XMLID_19_" style="fill:#7285B4;" d="M338.392,476.752c-6.785,0-12.119-1.901-16.001-5.705
			c-3.883-3.803-5.824-8.965-5.824-15.484c0-6.731,2.014-11.999,6.042-15.802c4.028-3.803,9.475-5.705,16.339-5.705
			c6.758,0,12.059,1.902,15.902,5.705c3.842,3.803,5.764,8.832,5.764,15.087c0,6.758-1.981,12.099-5.943,16.021
			C350.709,474.791,345.283,476.752,338.392,476.752z M338.71,443.677c-2.969,0-5.274,1.021-6.917,3.061
			c-1.644,2.041-2.464,4.93-2.464,8.666c0,7.819,3.153,11.728,9.461,11.728c6.016,0,9.024-4.015,9.024-12.045
			C347.814,447.479,344.779,443.677,338.71,443.677z"/>
		<path id="XMLID_22_" style="fill:#7285B4;" d="M399.613,474.287c-2.836,1.643-6.931,2.465-12.284,2.465
			c-6.255,0-11.317-1.895-15.186-5.686c-3.87-3.789-5.804-8.679-5.804-14.669c0-6.917,2.073-12.369,6.222-16.358
			c4.147-3.988,9.693-5.983,16.637-5.983c4.797,0,8.269,0.637,10.416,1.908v10.654c-2.624-1.961-5.552-2.941-8.786-2.941
			c-3.604,0-6.46,1.053-8.567,3.16c-2.107,2.106-3.16,5.016-3.16,8.726c0,3.604,1.007,6.435,3.021,8.487
			c2.014,2.055,4.784,3.081,8.309,3.081c3.127,0,6.188-0.979,9.183-2.941V474.287z"/>
		<path id="XMLID_24_" style="fill:#7285B4;" d="M414.203,428.609c-2.12,0-3.855-0.629-5.207-1.888s-2.027-2.803-2.027-4.632
			c0-1.882,0.676-3.419,2.027-4.611s3.087-1.789,5.207-1.789c2.147,0,3.89,0.597,5.229,1.789c1.338,1.192,2.007,2.729,2.007,4.611
			c0,1.908-0.669,3.473-2.007,4.691C418.092,428,416.35,428.609,414.203,428.609z M420.405,475.758h-12.563V435.05h12.563V475.758z"
			/>
		<path id="XMLID_27_" style="fill:#7285B4;" d="M464.849,475.758h-11.886v-5.844h-0.159c-2.73,4.559-6.771,6.838-12.125,6.838
			c-3.949,0-7.057-1.119-9.322-3.359c-2.266-2.239-3.399-5.228-3.399-8.965c0-7.897,4.678-12.456,14.033-13.675l11.052-1.472
			c0-4.452-2.412-6.679-7.235-6.679c-4.85,0-9.461,1.445-13.834,4.334v-9.462c1.749-0.9,4.141-1.695,7.176-2.385
			c3.034-0.689,5.797-1.034,8.288-1.034c11.608,0,17.412,5.791,17.412,17.373V475.758z M453.042,459.22v-2.742l-7.395,0.954
			c-4.081,0.53-6.122,2.372-6.122,5.525c0,1.431,0.497,2.604,1.491,3.519c0.994,0.914,2.339,1.371,4.035,1.371
			c2.358,0,4.279-0.814,5.764-2.444S453.042,461.712,453.042,459.22z"/>
		<path id="XMLID_30_" style="fill:#7285B4;" d="M487.35,475.758h-12.563v-60.267h12.563V475.758z"/>
		<path id="XMLID_32_" style="fill:#7285B4;" d="M534.498,458.981h-26.556c0.423,5.91,4.147,8.865,11.171,8.865
			c4.479,0,8.414-1.06,11.807-3.181v9.064c-3.764,2.015-8.653,3.021-14.669,3.021c-6.573,0-11.675-1.822-15.306-5.467
			c-3.631-3.644-5.446-8.726-5.446-15.245c0-6.759,1.961-12.111,5.884-16.061c3.922-3.949,8.746-5.924,14.471-5.924
			c5.936,0,10.527,1.763,13.774,5.287c3.246,3.525,4.87,8.309,4.87,14.352V458.981z M522.85,451.27c0-5.83-2.359-8.746-7.076-8.746
			c-2.015,0-3.757,0.835-5.228,2.505c-1.471,1.669-2.365,3.75-2.684,6.241H522.85z"/>
		<path id="XMLID_35_" style="fill:#7285B4;" d="M539.309,474.685v-10.177c2.067,1.246,4.127,2.173,6.182,2.782
			c2.054,0.61,3.995,0.914,5.824,0.914c2.226,0,3.981-0.304,5.267-0.914c1.285-0.609,1.929-1.536,1.929-2.782
			c0-0.796-0.292-1.458-0.875-1.988c-0.583-0.529-1.332-0.993-2.246-1.392c-0.914-0.397-1.915-0.755-3.001-1.073
			c-1.087-0.317-2.134-0.676-3.141-1.073c-1.617-0.609-3.041-1.265-4.273-1.968c-1.232-0.702-2.267-1.517-3.102-2.444
			c-0.834-0.928-1.471-2.001-1.908-3.221c-0.437-1.219-0.655-2.663-0.655-4.333c0-2.279,0.497-4.24,1.49-5.884
			c0.994-1.643,2.319-2.987,3.976-4.035c1.656-1.046,3.551-1.814,5.685-2.306c2.134-0.49,4.354-0.735,6.659-0.735
			c1.802,0,3.631,0.14,5.486,0.418c1.854,0.278,3.684,0.683,5.485,1.212v9.7c-1.59-0.928-3.293-1.623-5.108-2.087
			s-3.598-0.696-5.347-0.696c-0.821,0-1.597,0.074-2.325,0.219c-0.729,0.146-1.372,0.358-1.929,0.637s-0.993,0.636-1.312,1.073
			s-0.477,0.934-0.477,1.49c0,0.742,0.238,1.379,0.715,1.908c0.478,0.531,1.1,0.988,1.869,1.372
			c0.768,0.385,1.623,0.729,2.563,1.033c0.94,0.306,1.875,0.616,2.803,0.935c1.67,0.583,3.181,1.219,4.532,1.908
			s2.511,1.497,3.479,2.425c0.967,0.928,1.709,2.015,2.226,3.26c0.518,1.246,0.775,2.73,0.775,4.452c0,2.412-0.523,4.473-1.57,6.182
			c-1.047,1.71-2.438,3.102-4.174,4.175c-1.736,1.073-3.737,1.855-6.003,2.346c-2.266,0.489-4.618,0.735-7.057,0.735
			C547.272,476.752,543.125,476.063,539.309,474.685z"/>
	</g>
</g>
<g id="XMLID_1_">
</g>
<g id="XMLID_16_">
</g>
<g id="XMLID_38_">
</g>
<g id="XMLID_39_">
</g>
<g id="XMLID_40_">
</g>
<g id="XMLID_41_">
</g>
</svg>
