<?xml version="1.0" encoding="iso-8859-1"?>
<!-- Generator: Adobe Illustrator 19.0.0, SVG Export Plug-In . SVG Version: 6.00 Build 0)  -->
<svg version="1.1" id="Capa_1" xmlns="http://www.w3.org/2000/svg" xmlns:xlink="http://www.w3.org/1999/xlink" x="0px" y="0px"
	 viewBox="0 0 850.39 850.39" style="enable-background:new 0 0 850.39 850.39;" xml:space="preserve">
<path id="XMLID_380_" style="fill:#7285B4;" d="M425.195,79.093c-191.153,0-346.085,154.965-346.085,346.119
	c0,191.12,154.932,346.085,346.085,346.085S771.28,616.332,771.28,425.212C771.28,234.059,616.348,79.093,425.195,79.093z
	 M425.195,701.965c-152.868,0-276.753-123.918-276.753-276.753c0-152.868,123.885-276.787,276.753-276.787
	s276.753,123.918,276.753,276.787C701.948,578.047,578.063,701.965,425.195,701.965z"/>
<g id="XMLID_2_">
	<g id="XMLID_4_">
		<rect id="XMLID_47_" x="155.011" y="348.402" style="fill:none;" width="540.369" height="153.587"/>
		<path id="XMLID_3_" style="fill:#7285B4;" d="M305.973,405.001c-5.583,3.217-12.521,4.825-20.814,4.825
			c-9.198,0-16.448-2.545-21.751-7.636c-5.303-5.09-7.955-12.102-7.955-21.033c0-8.985,2.897-16.309,8.692-21.97
			c5.794-5.662,13.503-8.493,23.126-8.493c6.061,0,11.404,0.837,16.029,2.512v12.082c-4.413-2.552-9.809-3.828-16.189-3.828
			c-5.343,0-9.696,1.735-13.058,5.204c-3.363,3.469-5.044,8.101-5.044,13.896c0,5.875,1.509,10.42,4.526,13.637
			c3.017,3.216,7.09,4.825,12.221,4.825c3.083,0,5.529-0.438,7.336-1.316v-11.164H281.65v-10.288h24.323V405.001z"/>
		<path id="XMLID_6_" style="fill:#7285B4;" d="M349.834,408.83h-11.922v-5.861h-0.16c-2.738,4.572-6.792,6.858-12.161,6.858
			c-3.961,0-7.078-1.123-9.35-3.369c-2.273-2.246-3.409-5.244-3.409-8.992c0-7.921,4.691-12.493,14.075-13.716l11.084-1.476
			c0-4.466-2.419-6.699-7.257-6.699c-4.864,0-9.49,1.449-13.876,4.346v-9.49c1.754-0.903,4.153-1.701,7.197-2.393
			c3.043-0.691,5.814-1.037,8.313-1.037c11.643,0,17.465,5.809,17.465,17.425V408.83z M337.991,392.242v-2.751l-7.416,0.957
			c-4.094,0.532-6.141,2.379-6.141,5.542c0,1.436,0.499,2.612,1.495,3.529c0.997,0.917,2.346,1.376,4.047,1.376
			c2.365,0,4.292-0.817,5.781-2.452C337.247,396.807,337.991,394.741,337.991,392.242z"/>
		<path id="XMLID_9_" style="fill:#7285B4;" d="M372.562,404.084h-0.159v4.745h-12.6v-60.448h12.6v25.758h0.159
			c3.11-4.758,7.536-7.137,13.278-7.137c5.263,0,9.317,1.808,12.162,5.423c2.844,3.615,4.266,8.56,4.266,14.833
			c0,6.805-1.662,12.268-4.984,16.388c-3.323,4.121-7.762,6.181-13.318,6.181C378.941,409.827,375.14,407.913,372.562,404.084z
			 M372.203,386.859v4.187c0,2.632,0.758,4.812,2.273,6.54c1.515,1.729,3.455,2.592,5.821,2.592c2.871,0,5.097-1.109,6.679-3.329
			s2.373-5.363,2.373-9.431c0-3.375-0.725-6.014-2.173-7.915c-1.449-1.9-3.516-2.851-6.2-2.851c-2.526,0-4.619,0.944-6.28,2.831
			C373.033,381.371,372.203,383.829,372.203,386.859z"/>
		<path id="XMLID_12_" style="fill:#7285B4;" d="M416.821,361.54c-2.127,0-3.868-0.631-5.224-1.894
			c-1.355-1.262-2.034-2.811-2.034-4.646c0-1.887,0.678-3.429,2.034-4.625c1.355-1.196,3.096-1.794,5.224-1.794
			c2.153,0,3.9,0.598,5.243,1.794c1.342,1.196,2.014,2.738,2.014,4.625c0,1.914-0.672,3.483-2.014,4.705
			C420.722,360.929,418.974,361.54,416.821,361.54z M423.042,408.83h-12.6V368h12.6V408.83z"/>
		<path id="XMLID_15_" style="fill:#7285B4;" d="M473.083,408.83h-12.561v-22.688c0-6.326-2.26-9.49-6.778-9.49
			c-2.18,0-3.975,0.837-5.383,2.512c-1.41,1.674-2.113,3.801-2.113,6.379v23.286h-12.601V368h12.601v6.459h0.159
			c3.004-4.971,7.377-7.457,13.118-7.457c9.038,0,13.558,5.609,13.558,16.827V408.83z"/>
		<path id="XMLID_17_" style="fill:#7285B4;" d="M519.734,392.003H493.1c0.425,5.928,4.159,8.892,11.204,8.892
			c4.492,0,8.439-1.063,11.843-3.19v9.092c-3.775,2.021-8.68,3.03-14.714,3.03c-6.593,0-11.71-1.827-15.351-5.482
			c-3.643-3.655-5.463-8.752-5.463-15.292c0-6.778,1.967-12.147,5.901-16.108c3.934-3.961,8.771-5.941,14.514-5.941
			c5.954,0,10.56,1.768,13.816,5.303c3.256,3.536,4.884,8.333,4.884,14.394V392.003z M508.052,384.268
			c0-5.848-2.366-8.772-7.098-8.772c-2.021,0-3.768,0.837-5.243,2.512c-1.476,1.675-2.372,3.762-2.691,6.26H508.052z"/>
		<path id="XMLID_21_" style="fill:#7285B4;" d="M551.912,408.351c-1.86,0.983-4.665,1.476-8.413,1.476
			c-8.879,0-13.317-4.612-13.317-13.836v-18.7h-6.619V368h6.619v-8.812l12.56-3.589V368h9.171v9.291h-9.171v16.507
			c0,4.253,1.688,6.38,5.064,6.38c1.329,0,2.697-0.385,4.106-1.156V408.351z"/>
		<path id="XMLID_23_" style="fill:#7285B4;" d="M595.693,392.003h-26.635c0.425,5.928,4.159,8.892,11.204,8.892
			c4.492,0,8.439-1.063,11.843-3.19v9.092c-3.775,2.021-8.68,3.03-14.714,3.03c-6.593,0-11.71-1.827-15.351-5.482
			c-3.643-3.655-5.463-8.752-5.463-15.292c0-6.778,1.967-12.147,5.901-16.108c3.934-3.961,8.771-5.941,14.514-5.941
			c5.954,0,10.56,1.768,13.816,5.303c3.256,3.536,4.884,8.333,4.884,14.394V392.003z M584.011,384.268
			c0-5.848-2.366-8.772-7.098-8.772c-2.021,0-3.768,0.837-5.243,2.512c-1.476,1.675-2.372,3.762-2.691,6.26H584.011z"/>
		<path id="XMLID_26_" style="fill:#7285B4;" d="M283.525,475.908h-12.6v-5.622h-0.16c-2.871,4.413-7.084,6.619-12.64,6.619
			c-5.104,0-9.211-1.801-12.321-5.403c-3.11-3.602-4.665-8.632-4.665-15.092c0-6.752,1.714-12.161,5.144-16.229
			s7.921-6.101,13.477-6.101c5.263,0,8.932,1.888,11.005,5.662h0.16V415.46h12.6V475.908z M271.164,456.052v-3.07
			c0-2.658-0.771-4.865-2.313-6.619c-1.542-1.755-3.549-2.632-6.021-2.632c-2.791,0-4.971,1.097-6.539,3.289
			c-1.569,2.193-2.353,5.204-2.353,9.032c0,3.588,0.757,6.354,2.272,8.293c1.515,1.941,3.615,2.911,6.3,2.911
			c2.552,0,4.631-1.023,6.24-3.07S271.164,459.428,271.164,456.052z"/>
		<path id="XMLID_29_" style="fill:#7285B4;" d="M330.815,459.082h-26.636c0.425,5.928,4.16,8.892,11.205,8.892
			c4.492,0,8.439-1.063,11.842-3.19v9.092c-3.775,2.021-8.679,3.03-14.713,3.03c-6.593,0-11.709-1.827-15.351-5.482
			c-3.642-3.655-5.462-8.753-5.462-15.292c0-6.778,1.967-12.147,5.901-16.108s8.772-5.941,14.514-5.941
			c5.954,0,10.56,1.769,13.816,5.303c3.256,3.536,4.885,8.334,4.885,14.395V459.082z M319.132,451.347
			c0-5.848-2.366-8.772-7.098-8.772c-2.02,0-3.768,0.837-5.243,2.512c-1.475,1.675-2.373,3.762-2.691,6.261H319.132z"/>
		<path id="XMLID_32_" style="fill:#7285B4;" d="M373.599,471.163h-0.159v23.525h-12.6v-59.61h12.6v6.141h0.159
			c3.11-4.759,7.482-7.138,13.119-7.138c5.289,0,9.376,1.814,12.261,5.442c2.884,3.629,4.326,8.567,4.326,14.813
			c0,6.805-1.681,12.268-5.044,16.388c-3.363,4.121-7.835,6.181-13.417,6.181C379.925,476.905,376.177,474.991,373.599,471.163z
			 M373.24,454.416v3.271c0,2.817,0.744,5.117,2.233,6.897c1.488,1.781,3.442,2.672,5.861,2.672c2.871,0,5.097-1.109,6.679-3.329
			s2.373-5.363,2.373-9.431c0-7.177-2.791-10.766-8.373-10.766c-2.579,0-4.686,0.977-6.32,2.931S373.24,451.2,373.24,454.416z"/>
		<path id="XMLID_35_" style="fill:#7285B4;" d="M438.114,446.441c-1.516-0.823-3.283-1.235-5.304-1.235
			c-2.738,0-4.878,1.003-6.419,3.01c-1.542,2.008-2.313,4.739-2.313,8.194v19.498h-12.6v-40.83h12.6v7.576h0.159
			c1.994-5.529,5.583-8.294,10.766-8.294c1.329,0,2.365,0.159,3.11,0.479V446.441z"/>
		<path id="XMLID_37_" style="fill:#7285B4;" d="M480.658,459.082h-26.635c0.426,5.928,4.16,8.892,11.205,8.892
			c4.492,0,8.439-1.063,11.842-3.19v9.092c-3.775,2.021-8.68,3.03-14.713,3.03c-6.594,0-11.711-1.827-15.352-5.482
			c-3.643-3.655-5.463-8.753-5.463-15.292c0-6.778,1.967-12.147,5.901-16.108s8.772-5.941,14.515-5.941
			c5.953,0,10.559,1.769,13.816,5.303c3.256,3.536,4.883,8.334,4.883,14.395V459.082z M468.977,451.347
			c0-5.848-2.367-8.772-7.098-8.772c-2.021,0-3.768,0.837-5.244,2.512c-1.475,1.675-2.371,3.762-2.691,6.261H468.977z"/>
		<path id="XMLID_40_" style="fill:#7285B4;" d="M527.59,475.908h-12.561v-22.688c0-6.326-2.26-9.49-6.778-9.49
			c-2.18,0-3.975,0.837-5.383,2.512c-1.409,1.675-2.113,3.802-2.113,6.38v23.286h-12.601v-40.83h12.601v6.459h0.159
			c3.004-4.97,7.377-7.456,13.118-7.456c9.038,0,13.558,5.609,13.558,16.826V475.908z"/>
		<path id="XMLID_42_" style="fill:#7285B4;" d="M534.887,474.832v-10.208c2.073,1.25,4.14,2.18,6.2,2.791
			c2.06,0.612,4.007,0.917,5.842,0.917c2.232,0,3.993-0.305,5.283-0.917c1.289-0.611,1.934-1.541,1.934-2.791
			c0-0.798-0.293-1.462-0.877-1.993c-0.586-0.532-1.336-0.997-2.253-1.396c-0.917-0.398-1.921-0.757-3.011-1.076
			s-2.14-0.678-3.15-1.076c-1.621-0.611-3.05-1.27-4.286-1.974s-2.272-1.521-3.11-2.453c-0.837-0.93-1.475-2.006-1.914-3.229
			c-0.438-1.222-0.657-2.671-0.657-4.346c0-2.286,0.498-4.253,1.495-5.901s2.325-2.997,3.987-4.047
			c1.661-1.05,3.562-1.821,5.702-2.313c2.139-0.491,4.366-0.737,6.679-0.737c1.808,0,3.642,0.14,5.502,0.419
			s3.695,0.685,5.503,1.216v9.729c-1.595-0.931-3.304-1.628-5.124-2.094c-1.821-0.465-3.608-0.697-5.362-0.697
			c-0.824,0-1.603,0.073-2.333,0.219c-0.731,0.146-1.376,0.359-1.934,0.638c-0.559,0.279-0.997,0.639-1.316,1.077
			c-0.318,0.438-0.479,0.937-0.479,1.495c0,0.744,0.239,1.383,0.718,1.914c0.479,0.532,1.104,0.99,1.874,1.375
			c0.771,0.386,1.628,0.731,2.572,1.037c0.943,0.306,1.88,0.618,2.811,0.938c1.675,0.585,3.19,1.223,4.546,1.913
			c1.355,0.692,2.519,1.503,3.489,2.433c0.97,0.931,1.714,2.021,2.232,3.27c0.519,1.25,0.777,2.738,0.777,4.466
			c0,2.419-0.524,4.486-1.574,6.2c-1.051,1.715-2.446,3.11-4.188,4.187c-1.741,1.077-3.748,1.861-6.021,2.353
			c-2.272,0.492-4.632,0.738-7.077,0.738C542.874,476.905,538.715,476.214,534.887,474.832z"/>
		<path id="XMLID_44_" style="fill:#7285B4;" d="M607.456,475.908h-11.922v-5.861h-0.16c-2.738,4.572-6.792,6.858-12.161,6.858
			c-3.961,0-7.077-1.123-9.351-3.369c-2.272-2.246-3.409-5.244-3.409-8.992c0-7.921,4.691-12.493,14.075-13.716l11.085-1.476
			c0-4.466-2.419-6.698-7.257-6.698c-4.864,0-9.489,1.448-13.876,4.346v-9.49c1.755-0.903,4.153-1.7,7.197-2.392
			s5.814-1.037,8.313-1.037c11.644,0,17.465,5.809,17.465,17.425V475.908z M595.613,459.321v-2.752l-7.416,0.957
			c-4.094,0.532-6.141,2.38-6.141,5.543c0,1.436,0.498,2.611,1.495,3.528s2.346,1.376,4.047,1.376c2.366,0,4.293-0.817,5.782-2.452
			C594.869,463.887,595.613,461.82,595.613,459.321z"/>
	</g>
</g>
<g id="XMLID_1_">
</g>
<g id="XMLID_18_">
</g>
<g id="XMLID_48_">
</g>
<g id="XMLID_49_">
</g>
<g id="XMLID_50_">
</g>
<g id="XMLID_51_">
</g>
</svg>
