<?xml version="1.0" encoding="utf-8"?>
<!-- Generator: Adobe Illustrator 19.0.0, SVG Export Plug-In . SVG Version: 6.00 Build 0)  -->
<svg version="1.1" id="Capa_1" xmlns="http://www.w3.org/2000/svg" xmlns:xlink="http://www.w3.org/1999/xlink" x="0px" y="0px"
	 viewBox="0 0 841.9 595.3" style="enable-background:new 0 0 841.9 595.3;" xml:space="preserve">
<style type="text/css">
	.st0{fill:#2D2D2D;}
</style>
<g>
	<path class="st0" d="M668,136v-27.5l-10.4-3.5c-1.4-5-3.3-9.7-5.9-14.2l4.9-9.8l-19.5-19.5l-9.8,4.9c-4.5-2.5-9.2-4.5-14.2-5.9
		l-3.5-10.4h-27.5l-3.4,10.4c-5,1.4-9.7,3.3-14.2,5.9l-9.8-4.9l-17.9,17.9C501.1,60.3,461,50.3,420,50.3c-30.9,0-60.8,5.6-89.3,16.6
		c-3.1-9.6-12.1-16.6-22.7-16.6H196c-13.2,0-24,10.8-24,24v64c0,13.2,10.8,24,24,24h16.7c-26.6,40.4-40.7,87.1-40.7,136
		c0,56,18.9,110,53.4,153.6c-14.6,4.1-26,16.1-28.7,31.3c-14.1,3.3-24.6,16-24.6,31.1c0,17.6,14.4,32,32,32h112
		c10.4,0,19.6-5.1,25.5-12.8c25.3,8.4,51.6,12.8,78.5,12.8c51.7,0,102.2-16.3,144-46.1v14.1c0,17.6,14.4,32,32,32
		c17.6,0,32-14.4,32-32v-16.1c0-5.1,2.1-9.7,5.7-12.3c16.5-12,26.3-31.3,26.3-51.6c0-13.8-4.4-26.8-12.3-37.7
		c13.4-31,20.3-64,20.3-98.3c0-41-10.1-81.1-29.3-116.9l17.9-17.9l-4.9-9.8c2.5-4.5,4.5-9.2,5.9-14.2L668,136z M536.8,98
		c-1,2.3-1.8,4.7-2.4,7.1l-10.4,3.4v0.4c-31.8-17.5-67.4-26.7-104-26.7c-30.3,0-60.5,6.4-88,18.7V83.6c27.9-11.5,57.5-17.3,88-17.3
		C461.3,66.3,501.4,77.3,536.8,98L536.8,98z M554.8,182.9l9.8-4.9c4.5,2.5,9.2,4.5,14.2,5.9l3.5,10.4h8.5
		c19.1,31.3,29.3,67.1,29.3,104c0,25.2-4.6,49.6-13.7,72.8c-3.7-0.6-7.5-0.9-11.4-0.8c-33.5,0.6-61.7,28.2-62.9,61.6
		c-0.4,9.8,1.6,19.3,5.5,28c-34.3,25-74.7,38.4-117.5,38.4c-35.7,0-70.6-9.5-101.1-27.5c-5.8-10.3-16-17.8-28.1-19.9
		c-45-38.1-70.8-93.6-70.8-152.6c0-36.3,9.7-71.2,28-102.1l4,7.9l20.9-41.9H308c13.2,0,24-10.8,24-24v-19.6
		c27.2-13.3,57.5-20.4,88-20.4c36.9,0,72.7,10.2,104,29.2v8.5l10.4,3.5c1.4,5,3.3,9.7,5.9,14.2l-4.9,9.8L554.8,182.9z M188,138.3
		v-64c0-4.4,3.6-8,8-8h112c4.4,0,8,3.6,8,8v64c0,4.4-3.6,8-8,8h-44.9L252,168.4l-11.1-22.1H196C191.6,146.3,188,142.7,188,138.3
		L188,138.3z M231.5,163.2l8.2,16.3c-23.3,35.3-35.7,76.2-35.7,118.7c0,58.8,23.7,114.3,65.6,154.9c-3.4,1.3-6.6,3-9.6,5.3
		c-4.2-3.2-9-5.4-14-6.7c-37.4-42.4-58-96.8-58-153.4C188,249.3,203.1,202.8,231.5,163.2L231.5,163.2z M316,530.3H204
		c-8.8,0-16-7.2-16-16c0-8.8,7.2-16,16-16h8v-8c0-13.2,10.8-24,24-24c6.9,0,13.3,3,18,8.3l6,6.9l6-6.9c4.7-5.4,11.1-8.3,18-8.3
		c13.2,0,24,10.8,24,24v8h8c8.8,0,16,7.2,16,16C332,523.1,324.8,530.3,316,530.3L316,530.3z M347.6,518.6c0.2-1.4,0.4-2.8,0.4-4.3
		c0-4.9-1.2-9.4-3.1-13.6c23.9,8.9,49.3,13.6,75.1,13.6c45.7,0,88.9-14.1,125.7-40.6c3.3,4.2,7.2,8,11.5,11.4
		c-39.6,29.1-87.8,45.2-137.3,45.2C395.2,530.3,370.9,526.2,347.6,518.6L347.6,518.6z M596,530.3c-8.8,0-16-7.2-16-16h32
		C612,523.1,604.8,530.3,596,530.3L596,530.3z M624.3,473c-7.7,5.6-12.3,15-12.3,25.2v0.1h-8v-40h-16v40h-8v-0.1
		c0-10.1-4.7-19.5-12.5-25.3c-12.8-9.4-20.1-24.5-19.5-40.3c0.9-25.1,22-45.8,47.2-46.2c0.3,0,0.5,0,0.8,0
		c12.7,0,24.6,4.9,33.7,13.8c9.2,9.1,14.3,21.2,14.3,34.2C644,449.5,636.6,464,624.3,473L624.3,473z M635.6,384
		c-4.3-3.4-9-6.2-13.9-8.4C631.1,351,636,325,636,298.3c0-36.6-9.2-72.2-26.7-104h0.4l3.4-10.4c2.4-0.7,4.8-1.5,7.1-2.4
		C641,216.8,652,257,652,298.3C652,328,646.4,356.8,635.6,384L635.6,384z M652,124.5l-8,2.7l-0.9,4.6c-1.2,6.1-3.6,11.9-7.1,17.1
		l-2.6,3.9l3.8,7.6l-3.2,3.2l-7.6-3.8l-3.9,2.6c-5.2,3.5-11,5.9-17.1,7.1l-4.6,0.9l-2.7,8h-4.5l-2.7-8l-4.6-0.9
		c-6.1-1.2-11.9-3.6-17.1-7.1l-3.9-2.6l-7.6,3.8l-3.2-3.2l3.8-7.6l-2.6-3.9c-3.5-5.2-5.9-11-7.1-17.1l-0.9-4.6l-8-2.7V120l8-2.7
		l0.9-4.6c1.2-6.1,3.6-11.9,7.1-17.1l2.6-3.9l-3.8-7.6l3.2-3.2l7.6,3.8l3.9-2.6c5.2-3.5,11-5.9,17.1-7.1l4.6-0.9l2.7-8h4.5l2.7,8
		l4.6,0.9c6.1,1.2,11.9,3.6,17.1,7.1l3.9,2.6l7.6-3.8l3.2,3.2l-3.8,7.6l2.6,3.9c3.5,5.2,5.9,11,7.1,17.1l0.9,4.6l8,2.7V124.5z
		 M652,124.5"/>
	<path class="st0" d="M596,90.3c-17.6,0-32,14.4-32,32c0,17.6,14.4,32,32,32c17.6,0,32-14.4,32-32C628,104.6,613.6,90.3,596,90.3
		L596,90.3z M596,138.3c-8.8,0-16-7.2-16-16c0-8.8,7.2-16,16-16c8.8,0,16,7.2,16,16C612,131.1,604.8,138.3,596,138.3L596,138.3z
		 M596,138.3"/>
	<rect x="588" y="426.3" class="st0" width="16" height="16"/>
	<rect x="204" y="82.3" class="st0" width="96" height="16"/>
	<rect x="284" y="114.3" class="st0" width="16" height="16"/>
	<rect x="204" y="114.3" class="st0" width="64" height="16"/>
	<path class="st0" d="M492,154.3H348c-13.2,0-24,10.8-24,24v256c0,13.2,10.8,24,24,24h144c13.2,0,24-10.8,24-24v-256
		C516,165,505.2,154.3,492,154.3L492,154.3z M348,170.3h144c4.4,0,8,3.6,8,8v24H340v-24C340,173.9,343.6,170.3,348,170.3L348,170.3z
		 M500,218.3v160H340v-160H500z M492,442.3H348c-4.4,0-8-3.6-8-8v-40h160v40C500,438.7,496.4,442.3,492,442.3L492,442.3z M492,442.3
		"/>
	<rect x="388" y="410.3" class="st0" width="64" height="16"/>
	<path class="st0" d="M458.4,298.3L388,251.3v93.9L458.4,298.3z M404,281.2l25.6,17.1L404,315.3V281.2z M404,281.2"/>
</g>
</svg>
