<?xml version="1.0" encoding="iso-8859-1"?>
<!-- Generator: Adobe Illustrator 19.0.0, SVG Export Plug-In . SVG Version: 6.00 Build 0)  -->
<svg version="1.1" id="Capa_1" xmlns="http://www.w3.org/2000/svg" xmlns:xlink="http://www.w3.org/1999/xlink" x="0px" y="0px"
	 viewBox="0 0 841.89 595.28" style="enable-background:new 0 0 841.89 595.28;" xml:space="preserve">
<g id="XMLID_260_" style="opacity:0.69;">
	<path d="M387.357,96.908c23.152,0,41.919,18.772,41.919,41.923c0,23.155-18.767,41.923-41.919,41.923
		c-23.154,0-41.923-18.767-41.923-41.923C345.462,115.692,364.215,96.939,387.357,96.908L387.357,96.908L387.357,96.908z
		 M387.357,197.522c32.347,0.073,58.63-26.091,58.707-58.438c0.027-12.742-4.099-25.147-11.755-35.333l51.218-51.219l-11.871-11.855
		L422.437,91.88c-25.933-19.447-62.72-14.193-82.168,11.737c-19.447,25.929-14.194,62.717,11.736,82.169
		C362.204,193.431,374.612,197.549,387.357,197.522L387.357,197.522L387.357,197.522z"/>
	<polygon points="356.278,451.508 389.814,417.971 401.67,429.827 368.133,463.364 356.278,451.508 	"/>
	<g>
		<defs>
			<rect id="SVGID_1_" x="160.979" y="38.221" width="503.059" height="503.059"/>
		</defs>
		<clipPath id="SVGID_2_">
			<use xlink:href="#SVGID_1_"  style="overflow:visible;"/>
		</clipPath>
		<polygon style="clip-path:url(#SVGID_2_);" points="381.424,476.658 414.965,443.122 426.82,454.978 393.284,488.519 
			381.424,476.658 		"/>
		<path style="clip-path:url(#SVGID_2_);" d="M585.109,163.985h-46.836V117.15l58.691-58.691l46.836,46.836L585.109,163.985
			L585.109,163.985z M602.895,40.677c-3.274-3.274-8.582-3.274-11.856,0l-67.077,67.074c-1.57,1.573-2.456,3.703-2.456,5.93v58.687
			c0,4.633,3.753,8.386,8.386,8.386h58.691c2.222,0,4.353-0.882,5.926-2.456l67.074-67.077c3.274-3.274,3.274-8.579,0-11.856
			L602.895,40.677L602.895,40.677z"/>
		<path style="clip-path:url(#SVGID_2_);" d="M177.747,272.982h16.769v33.536h-16.769V272.982L177.747,272.982z M211.284,314.901
			v-59.763c0.012-8.662,7.031-15.685,15.698-15.693h85.987c8.667,0.008,15.686,7.031,15.698,15.693v69.224
			c-0.012,8.662-7.031,15.685-15.698,15.693h-85.987c-8.667-0.008-15.686-7.031-15.698-15.693V314.901L211.284,314.901z
			 M303.512,373.661c-0.004,4.59-3.723,8.313-8.316,8.317h-8.452v-25.154h16.768V373.661L303.512,373.661z M269.976,390.36v33.541
			h-33.537v-67.077h33.537V390.36L269.976,390.36z M345.435,261.663l83.842-37.272v130.755l-83.842-37.31V261.663L345.435,261.663z
			 M446.045,216.939l33.537-14.896v175.414l-33.537-14.896V216.939L446.045,216.939z M169.365,323.287h25.151v1.075
			c0.034,15.083,10.454,28.16,25.154,31.556v76.365c0,4.633,3.754,8.387,8.383,8.387h50.305c4.633,0,8.386-3.754,8.386-8.387
			v-33.536h8.452c13.84-0.038,25.051-11.246,25.085-25.086v-17.743c10.708-2.51,19.417-10.278,23.124-20.633l141.159,62.74
			c4.234,1.881,9.189-0.027,11.065-4.26c0.476-1.071,0.725-2.229,0.721-3.404V189.136c0.004-4.629-3.749-8.383-8.382-8.383
			c-1.171,0-2.334,0.246-3.405,0.722l-141.159,62.74c-4.583-12.884-16.761-21.501-30.436-21.539h-85.987
			c-17.923,0.016-32.447,14.543-32.466,32.462v1.075h-25.151c-4.633,0-8.386,3.754-8.386,8.382v50.306
			C160.979,319.533,164.732,323.287,169.365,323.287L169.365,323.287L169.365,323.287z"/>
		<path style="clip-path:url(#SVGID_2_);" d="M596.37,504.254l-71.15-71.134l40.472-40.469l4.536,58.891
			c0.315,4.122,3.589,7.403,7.711,7.722l58.902,4.526L596.37,504.254L596.37,504.254z M633.706,446.722l-47.315-3.631l-3.638-47.315
			L633.706,446.722L633.706,446.722z M578.588,367.908c-3.274-3.274-8.581-3.274-11.855,0l-59.294,59.294
			c-3.274,3.274-3.274,8.582,0,11.855l83.006,83.005c3.274,3.274,8.578,3.274,11.855,0l59.282-59.285
			c3.274-3.274,3.274-8.582,0-11.856L578.588,367.908L578.588,367.908z"/>
	</g>
	<path d="M567.619,122.062c-6.947,0-12.578,5.63-12.578,12.577c0,6.947,5.631,12.577,12.578,12.577
		c6.948,0,12.577-5.631,12.577-12.577C580.196,127.692,574.566,122.062,567.619,122.062L567.619,122.062L567.619,122.062z"/>
	<g>
		<defs>
			<rect id="SVGID_3_" x="160.979" y="38.221" width="503.059" height="503.059"/>
		</defs>
		<clipPath id="SVGID_4_">
			<use xlink:href="#SVGID_3_"  style="overflow:visible;"/>
		</clipPath>
		<path style="clip-path:url(#SVGID_4_);" d="M529.891,298.132c0-9.261,7.507-16.768,16.768-16.768s16.769,7.511,16.769,16.768
			v16.773h-33.537V298.132L529.891,298.132z M546.659,239.445c4.629,0,8.382,3.753,8.382,8.382c0,4.633-3.753,8.386-8.382,8.386
			c-4.633,0-8.386-3.753-8.386-8.386C538.273,243.199,542.027,239.445,546.659,239.445L546.659,239.445L546.659,239.445z
			 M580.196,323.287v-24.994c0.016-9.345,7.584-16.914,16.929-16.929h16.451c9.341,0.015,16.913,7.584,16.925,16.929v33.376h-50.305
			V323.287L580.196,323.287z M605.351,222.676c9.26,0,16.768,7.508,16.768,16.769c0,9.261-7.508,16.768-16.768,16.768
			c-9.261,0-16.769-7.511-16.769-16.768C588.582,230.184,596.09,222.676,605.351,222.676L605.351,222.676L605.351,222.676z
			 M521.505,331.673h41.923v8.382c0,4.633,3.753,8.386,8.386,8.386h67.073c4.629,0,8.383-3.753,8.383-8.386v-41.762
			c-0.042-14.239-9.046-26.908-22.476-31.633c15.091-10.739,18.618-31.679,7.879-46.771c-10.735-15.091-31.675-18.622-46.767-7.883
			c-15.091,10.739-18.622,31.679-7.883,46.771c2.168,3.047,4.832,5.714,7.883,7.883c-5.427,1.935-10.267,5.231-14.054,9.572
			c-2.921-3.366-6.487-6.117-10.486-8.09c11.269-8.122,13.82-23.842,5.7-35.111c-8.122-11.268-23.842-13.82-35.115-5.699
			c-11.268,8.121-13.82,23.841-5.699,35.11c1.581,2.195,3.508,4.118,5.699,5.7c-11.483,5.584-18.791,17.221-18.829,29.99v25.155
			C513.122,327.916,516.877,331.673,521.505,331.673L521.505,331.673L521.505,331.673z"/>
		<path style="clip-path:url(#SVGID_4_);" d="M404.126,521.042l-80.373-80.372l41.919-41.923h26.597l67.074,67.073L404.126,521.042
			L404.126,521.042z M395.74,381.978h-33.537c-2.223,0-4.357,0.883-5.93,2.456l-50.306,50.305c-3.274,3.274-3.274,8.582,0,11.856
			l92.229,92.228c3.274,3.274,8.581,3.274,11.855,0l67.078-67.074c3.27-3.274,3.27-8.582,0-11.855l-75.46-75.46
			C400.096,382.861,397.962,381.978,395.74,381.978L395.74,381.978L395.74,381.978z"/>
	</g>
</g>
</svg>
