<?xml version="1.0" encoding="iso-8859-1"?>
<!-- Generator: Adobe Illustrator 19.0.0, SVG Export Plug-In . SVG Version: 6.00 Build 0)  -->
<svg version="1.1" id="Capa_1" xmlns="http://www.w3.org/2000/svg" xmlns:xlink="http://www.w3.org/1999/xlink" x="0px" y="0px"
	 viewBox="0 0 841.89 595.28" style="enable-background:new 0 0 841.89 595.28;" xml:space="preserve">
<g>
	<path d="M588,298.28h-16c0,13.23-10.77,24-24,24c-13.23,0-24-10.77-24-24h-16c0,22.055,17.945,40,40,40
		C570.055,338.28,588,320.335,588,298.28L588,298.28z M588,298.28"/>
	<path d="M540,278.968l-18.344-18.344l-11.312,11.312L548,309.592l37.656-37.656l-11.312-11.312L556,278.968V151.225l32-16V50.28
		l-40,30l-40-30v84.945l32,16V278.968z M572,125.335l-16,8V94.28l16-12V125.335z M524,125.335V82.28l16,12v39.055L524,125.335z
		 M524,125.335"/>
	<path d="M526.719,229.479L522,214.19c-37.09,11.457-62,45.25-62,84.09c0,48.52,39.48,88,88,88s88-39.48,88-88
		c0-38.84-24.91-72.633-62-84.09l-4.719,15.289C599.617,238.854,620,266.495,620,298.28c0,39.695-32.305,72-72,72s-72-32.305-72-72
		C476,266.495,496.383,238.854,526.719,229.479L526.719,229.479z M526.719,229.479"/>
	<path d="M573.434,181.034l-3.387,15.637C617.535,206.936,652,249.663,652,298.28c0,57.344-46.656,104-104,104s-104-46.656-104-104
		c0-48.617,34.465-91.344,81.953-101.609l-3.387-15.637c-52.168,11.269-90.636,56.527-94.214,109.246H380v-192h-80v-48H172v112h128
		v-48h64v176h-64v-48H172v112h128v-48h64v176h-64v-48H172v112h128v-48h80v-192h48.406c4.145,62.441,56.129,112,119.594,112
		c66.168,0,120-53.832,120-120C668,242.182,628.223,192.874,573.434,181.034L573.434,181.034z M284,146.28h-96v-80h96V146.28z
		 M284,338.28h-96v-80h96V338.28z M284,530.28h-96v-80h96V530.28z M284,530.28"/>
	<rect x="204" y="274.28" width="64" height="16"/>
	<rect x="244" y="306.28" width="16" height="16"/>
	<rect x="212" y="306.28" width="16" height="16"/>
	<rect x="204" y="82.28" width="64" height="16"/>
	<rect x="244" y="114.28" width="16" height="16"/>
	<rect x="212" y="114.28" width="16" height="16"/>
	<rect x="204" y="466.28" width="64" height="16"/>
	<rect x="244" y="498.28" width="16" height="16"/>
	<rect x="212" y="498.28" width="16" height="16"/>
</g>
</svg>
