<?xml version="1.0" encoding="utf-8"?>
<!-- Generator: Adobe Illustrator 19.0.0, SVG Export Plug-In . SVG Version: 6.00 Build 0)  -->
<svg version="1.1" id="Capa_1" xmlns="http://www.w3.org/2000/svg" xmlns:xlink="http://www.w3.org/1999/xlink" x="0px" y="0px"
	 viewBox="0 0 841.9 595.3" style="enable-background:new 0 0 841.9 595.3;" xml:space="preserve">
<g>
	<defs>
		<rect id="SVGID_1_" x="164" y="41.3" width="512" height="512"/>
	</defs>
	<clipPath id="SVGID_2_">
		<use xlink:href="#SVGID_1_"  style="overflow:visible;"/>
	</clipPath>
</g>
<path d="M394.4,203.4c32.9,0.1,59.7-26.6,59.8-59.5c0-13-4.2-25.6-12-36l52.1-52.1l-12.1-12.1l-52.1,52.1
	c-26.4-19.8-63.8-14.4-83.6,11.9c-19.8,26.4-14.4,63.8,11.9,83.6C368.8,199.2,381.4,203.4,394.4,203.4L394.4,203.4z M394.4,101
	c23.6,0,42.7,19.1,42.7,42.7c0,23.6-19.1,42.7-42.7,42.7c-23.6,0-42.7-19.1-42.7-42.7C351.8,120.1,370.8,101,394.4,101L394.4,101z
	 M394.4,101"/>
<g>
	<defs>
		<rect id="SVGID_3_" x="164" y="41.3" width="512" height="512"/>
	</defs>
	<clipPath id="SVGID_4_">
		<use xlink:href="#SVGID_3_"  style="overflow:visible;"/>
	</clipPath>
</g>
<path d="M362.8,461.9l34.1-34.1l12.1,12.1L374.8,474L362.8,461.9z M362.8,461.9"/>
<path d="M388.4,487.5l34.1-34.1l12.1,12.1l-34.1,34.1L388.4,487.5z M388.4,487.5"/>
<path d="M613.8,43.8c-3.3-3.3-8.7-3.3-12.1,0L533.4,112c-1.6,1.6-2.5,3.8-2.5,6v59.7c0,4.7,3.8,8.5,8.5,8.5h59.7
	c2.3,0,4.4-0.9,6-2.5l68.3-68.3c3.3-3.3,3.3-8.7,0-12.1L613.8,43.8z M595.7,169.3H548v-47.7l59.7-59.7l47.7,47.7L595.7,169.3z
	 M595.7,169.3"/>
<path d="M172.5,331.4h25.6v1.1c0,15.4,10.6,28.7,25.6,32.1v77.7c0,4.7,3.8,8.5,8.5,8.5h51.2c4.7,0,8.5-3.8,8.5-8.5v-34.1h8.6
	c14.1,0,25.5-11.4,25.5-25.5v-18.1c10.9-2.6,19.8-10.5,23.5-21l143.7,63.9c4.3,1.9,9.4,0,11.3-4.3c0.5-1.1,0.7-2.3,0.7-3.5V194.9
	c0-4.7-3.8-8.5-8.5-8.5c-1.2,0-2.4,0.3-3.5,0.7l-143.7,63.9c-4.7-13.1-17.1-21.9-31-21.9h-87.5c-18.2,0-33,14.8-33,33v1.1h-25.6
	c-4.7,0-8.5,3.8-8.5,8.5v51.2C164,327.6,167.8,331.4,172.5,331.4L172.5,331.4z M454.1,223.2l34.1-15.2v178.5l-34.1-15.2V223.2z
	 M351.7,268.7l85.3-37.9v133.1l-85.3-38V268.7z M274.9,399.7v34.1h-34.1v-68.3h34.1V399.7z M309.1,382.7c0,4.7-3.8,8.5-8.5,8.5H292
	v-25.6h17.1V382.7z M215.2,322.9v-60.8c0-8.8,7.2-16,16-16h87.5c8.8,0,16,7.2,16,16v70.5c0,8.8-7.2,16-16,16h-87.5
	c-8.8,0-16-7.2-16-16V322.9z M181.1,280.2h17.1v34.1h-17.1V280.2z M181.1,280.2"/>
<path d="M589,376.8c-3.3-3.3-8.7-3.3-12.1,0l-60.3,60.3c-3.3,3.3-3.3,8.7,0,12.1l84.5,84.5c3.3,3.3,8.7,3.3,12.1,0l60.3-60.3
	c3.3-3.3,3.3-8.7,0-12.1L589,376.8z M645.1,457l-48.2-3.7l-3.7-48.2L645.1,457z M607.1,515.6l-72.4-72.4l41.2-41.2l4.6,59.9
	c0.3,4.2,3.7,7.5,7.8,7.9l59.9,4.6L607.1,515.6z M607.1,515.6"/>
<path d="M577.9,126.6c-7.1,0-12.8,5.7-12.8,12.8c0,7.1,5.7,12.8,12.8,12.8c7.1,0,12.8-5.7,12.8-12.8
	C590.7,132.3,584.9,126.6,577.9,126.6L577.9,126.6z M577.9,126.6"/>
<path d="M530.9,339.9h42.7v8.5c0,4.7,3.8,8.5,8.5,8.5h68.3c4.7,0,8.5-3.8,8.5-8.5V306c0-14.5-9.2-27.4-22.9-32.2
	c15.4-10.9,18.9-32.2,8-47.6c-10.9-15.4-32.2-19-47.6-8c-15.4,10.9-19,32.2-8,47.6c2.2,3.1,4.9,5.8,8,8c-5.5,2-10.4,5.3-14.3,9.7
	c-3-3.4-6.6-6.2-10.7-8.2c11.5-8.3,14.1-24.3,5.8-35.7c-8.3-11.5-24.3-14.1-35.7-5.8c-11.5,8.3-14.1,24.3-5.8,35.7
	c1.6,2.2,3.6,4.2,5.8,5.8c-11.7,5.7-19.1,17.5-19.2,30.5v25.6C522.4,336.1,526.2,339.9,530.9,339.9L530.9,339.9z M616.3,229
	c9.4,0,17.1,7.6,17.1,17.1c0,9.4-7.6,17.1-17.1,17.1c-9.4,0-17.1-7.6-17.1-17.1C599.2,236.7,606.8,229,616.3,229L616.3,229z
	 M590.7,331.4V306c0-9.5,7.7-17.2,17.2-17.2h16.7c9.5,0,17.2,7.7,17.2,17.2v34h-51.2V331.4z M556.5,246.1c4.7,0,8.5,3.8,8.5,8.5
	c0,4.7-3.8,8.5-8.5,8.5c-4.7,0-8.5-3.8-8.5-8.5C548,249.9,551.8,246.1,556.5,246.1L556.5,246.1z M539.5,305.8
	c0-9.4,7.6-17.1,17.1-17.1c9.4,0,17.1,7.6,17.1,17.1v17.1h-34.1V305.8z M539.5,305.8"/>
<path d="M402.9,391.1h-34.1c-2.3,0-4.4,0.9-6,2.5l-51.2,51.2c-3.3,3.3-3.3,8.7,0,12.1l93.9,93.9c3.3,3.3,8.7,3.3,12.1,0l68.3-68.3
	c3.3-3.3,3.3-8.7,0-12.1L409,393.6C407.4,392,405.2,391.1,402.9,391.1L402.9,391.1z M411.5,532.7l-81.8-81.8l42.7-42.7h27.1
	l68.3,68.3L411.5,532.7z M411.5,532.7"/>
</svg>
